<svg width="1440" height="320" viewBox="0 0 1440 320" fill="none" xmlns="http://www.w3.org/2000/svg">
<path fill-rule="evenodd" clip-rule="evenodd" d="M0 320L39.6522 296.828C80.3478 273.655 159.652 228.414 240 220.69C320.348 212.966 399.652 243.862 480 273.655C560.348 304.552 639.652 335.448 720 304.552C800.348 273.655 879.652 183.172 960 121.379C1040.35 60.6897 1119.65 30.8966 1200 23.1724C1280.35 15.4483 1359.65 30.8966 1400.35 38.6207L1440 45.2414V0H1400.35C1359.65 0 1280.35 0 1200 0C1119.65 0 1040.35 0 960 0C879.652 0 800.348 0 720 0C639.652 0 560.348 0 480 0C399.652 0 320.348 0 240 0C159.652 0 80.3478 0 39.6522 0H0V320Z" fill="#7879F1"/>
<path fill-rule="evenodd" clip-rule="evenodd" d="M1440 0H1379.48C1320 0 1200 0 1080 41.0365C960 82.0731 840 164.892 720 205.929C600 246.965 480 246.965 360 226.82C240 205.929 120 164.892 59.4783 144.001L0 123.856V0H59.4783C120 0 240 0 360 0C480 0 600 0 720 0C840 0 960 0 1080 0C1200 0 1320 0 1379.48 0H1440Z" fill="#A5A6F6" fill-opacity="0.91"/>
</svg>
