<svg width="65" height="28" viewBox="0 0 65 28" fill="none" xmlns="http://www.w3.org/2000/svg">
<rect x="0.288483" y="0.3479" width="64.2381" height="27.1" rx="13.55" fill="#5D5FEF"/>
<path d="M12.631 19.8885V7.09167H16.2433C17.3566 7.09167 18.3409 7.33777 19.1964 7.82996C20.0519 8.32214 20.7111 9.02234 21.174 9.93054C21.6427 10.8387 21.88 11.8817 21.8859 13.0594V13.8768C21.8859 15.0839 21.6515 16.1415 21.1827 17.0497C20.7198 17.9579 20.0548 18.6552 19.1876 19.1415C18.3263 19.6278 17.3214 19.8768 16.173 19.8885H12.631ZM14.3185 8.48035V18.5087H16.0939C17.3947 18.5087 18.4054 18.1044 19.1261 17.2958C19.8527 16.4872 20.2159 15.3358 20.2159 13.8417V13.0946C20.2159 11.6415 19.8732 10.5135 19.1876 9.71082C18.5079 8.90222 17.5411 8.49207 16.2872 8.48035H14.3185ZM30.0597 19.8885C29.9659 19.701 29.8898 19.3671 29.8312 18.8866C29.0753 19.6718 28.173 20.0643 27.1241 20.0643C26.1866 20.0643 25.4161 19.8007 24.8126 19.2733C24.215 18.7401 23.9161 18.0663 23.9161 17.2518C23.9161 16.2616 24.2911 15.494 25.0411 14.9491C25.797 14.3983 26.8575 14.1229 28.2228 14.1229H29.8048V13.3759C29.8048 12.8075 29.6349 12.3563 29.295 12.0223C28.9552 11.6825 28.4542 11.5126 27.7921 11.5126C27.212 11.5126 26.7257 11.6591 26.3331 11.952C25.9406 12.245 25.7443 12.5995 25.7443 13.0155H24.1095C24.1095 12.5409 24.2765 12.0839 24.6105 11.6444C24.9503 11.1991 25.4073 10.8475 25.9816 10.5897C26.5616 10.3319 27.1974 10.203 27.8888 10.203C28.9845 10.203 29.8429 10.4784 30.464 11.0292C31.0851 11.5741 31.4073 12.327 31.4308 13.288V17.6649C31.4308 18.538 31.5421 19.2323 31.7648 19.7479V19.8885H30.0597ZM27.3615 18.6493C27.8712 18.6493 28.3546 18.5175 28.8116 18.2538C29.2687 17.9901 29.5997 17.6473 29.8048 17.2255V15.2743H28.5304C26.5382 15.2743 25.5421 15.8573 25.5421 17.0233C25.5421 17.5331 25.712 17.9315 26.0519 18.2186C26.3917 18.5057 26.8282 18.6493 27.3615 18.6493ZM35.7462 19.8885H34.1202V10.3788H35.7462V19.8885ZM33.9884 7.85632C33.9884 7.59265 34.0675 7.37 34.2257 7.18835C34.3898 7.00671 34.63 6.91589 34.9464 6.91589C35.2628 6.91589 35.5031 7.00671 35.6671 7.18835C35.8312 7.37 35.9132 7.59265 35.9132 7.85632C35.9132 8.12 35.8312 8.33972 35.6671 8.5155C35.5031 8.69128 35.2628 8.77917 34.9464 8.77917C34.63 8.77917 34.3898 8.69128 34.2257 8.5155C34.0675 8.33972 33.9884 8.12 33.9884 7.85632ZM40.1232 19.8885H38.4972V6.38855H40.1232V19.8885ZM45.8448 17.5067L48.0597 10.3788H49.7999L45.9767 21.3563C45.3849 22.9384 44.4445 23.7294 43.1554 23.7294L42.8478 23.703L42.2413 23.5887V22.2704L42.6808 22.3055C43.2316 22.3055 43.6593 22.1942 43.964 21.9716C44.2745 21.7489 44.5294 21.3417 44.7286 20.7499L45.089 19.7831L41.6964 10.3788H43.4718L45.8448 17.5067Z" fill="white"/>
</svg>
