<svg width="180" height="120" viewBox="0 0 180 120" fill="none" xmlns="http://www.w3.org/2000/svg">
<rect width="180" height="120" rx="10" fill="#F4F1FA"/>
<path d="M51.7533 13.2256H47.8685V24H46.2831V13.2256H42.4066V11.9141H51.7533V13.2256ZM52.0687 19.4263C52.0687 18.5464 52.2403 17.755 52.5834 17.0522C52.932 16.3494 53.4135 15.8071 54.0277 15.4253C54.6475 15.0435 55.3531 14.8525 56.1444 14.8525C57.3674 14.8525 58.3552 15.2759 59.1078 16.1226C59.8659 16.9692 60.245 18.0954 60.245 19.501V19.6089C60.245 20.4832 60.0762 21.269 59.7386 21.9663C59.4066 22.658 58.9279 23.1976 58.3026 23.585C57.6828 23.9723 56.969 24.166 56.161 24.166C54.9436 24.166 53.9558 23.7427 53.1976 22.896C52.445 22.0493 52.0687 20.9287 52.0687 19.5342V19.4263ZM53.6127 19.6089C53.6127 20.605 53.8423 21.4046 54.3016 22.0078C54.7665 22.611 55.3863 22.9126 56.161 22.9126C56.9413 22.9126 57.5611 22.6082 58.0204 21.9995C58.4797 21.3853 58.7094 20.5275 58.7094 19.4263C58.7094 18.4412 58.4742 17.6444 58.0038 17.0356C57.5389 16.4214 56.9191 16.1143 56.1444 16.1143C55.3863 16.1143 54.7748 16.4159 54.3099 17.019C53.8451 17.6222 53.6127 18.4855 53.6127 19.6089ZM64.2543 12.8438V15.0186H65.931V16.2056H64.2543V21.7754C64.2543 22.1351 64.329 22.4062 64.4784 22.5889C64.6278 22.766 64.8824 22.8545 65.2421 22.8545C65.4191 22.8545 65.6626 22.8213 65.9725 22.7549V24C65.5686 24.1107 65.1757 24.166 64.7938 24.166C64.1076 24.166 63.5902 23.9585 63.2416 23.5435C62.8929 23.1284 62.7186 22.5391 62.7186 21.7754V16.2056H61.0834V15.0186H62.7186V12.8438H64.2543ZM73.2772 24C73.1887 23.8229 73.1167 23.5075 73.0614 23.0537C72.3475 23.7952 71.4953 24.166 70.5048 24.166C69.6193 24.166 68.8916 23.917 68.3217 23.4189C67.7572 22.9154 67.475 22.279 67.475 21.5098C67.475 20.5745 67.8291 19.8496 68.5375 19.335C69.2513 18.8148 70.253 18.5547 71.5424 18.5547H73.0365V17.8491C73.0365 17.3123 72.876 16.8862 72.5551 16.5708C72.2341 16.2498 71.7609 16.0894 71.1356 16.0894C70.5878 16.0894 70.1285 16.2277 69.7577 16.5044C69.3869 16.7811 69.2015 17.1159 69.2015 17.5088H67.6576C67.6576 17.0605 67.8153 16.6289 68.1307 16.2139C68.4517 15.7933 68.8833 15.4613 69.4257 15.2178C69.9735 14.9743 70.5739 14.8525 71.2269 14.8525C72.2618 14.8525 73.0725 15.1126 73.6591 15.6328C74.2456 16.1475 74.55 16.8586 74.5721 17.7661V21.8999C74.5721 22.7244 74.6773 23.3802 74.8876 23.8672V24H73.2772ZM70.7289 22.8296C71.2103 22.8296 71.6669 22.7051 72.0985 22.4561C72.5302 22.207 72.8428 21.8833 73.0365 21.4849V19.6421H71.8329C69.9514 19.6421 69.0106 20.1927 69.0106 21.2939C69.0106 21.7754 69.1711 22.1517 69.4921 22.4229C69.813 22.694 70.2253 22.8296 70.7289 22.8296ZM78.6478 24H77.1122V11.25H78.6478V24ZM85.5707 24V11.9141H88.9823C90.0337 11.9141 90.9634 12.1465 91.7714 12.6113C92.5793 13.0762 93.2019 13.7375 93.639 14.5952C94.0817 15.453 94.3059 16.438 94.3114 17.5503V18.3223C94.3114 19.4622 94.09 20.4611 93.6473 21.3188C93.2102 22.1766 92.5821 22.8351 91.7631 23.2944C90.9496 23.7537 90.0005 23.9889 88.9159 24H85.5707ZM87.1644 13.2256V22.6968H88.8412C90.0697 22.6968 91.0243 22.3149 91.705 21.5513C92.3912 20.7876 92.7343 19.7002 92.7343 18.2891V17.5835C92.7343 16.2111 92.4105 15.1458 91.7631 14.3877C91.1211 13.624 90.208 13.2367 89.0238 13.2256H87.1644ZM98.1547 24H96.619V15.0186H98.1547V24ZM96.4945 12.6362C96.4945 12.3872 96.5692 12.1769 96.7186 12.0054C96.8736 11.8338 97.1005 11.748 97.3993 11.748C97.6981 11.748 97.925 11.8338 98.08 12.0054C98.2349 12.1769 98.3124 12.3872 98.3124 12.6362C98.3124 12.8853 98.2349 13.0928 98.08 13.2588C97.925 13.4248 97.6981 13.5078 97.3993 13.5078C97.1005 13.5078 96.8736 13.4248 96.7186 13.2588C96.5692 13.0928 96.4945 12.8853 96.4945 12.6362ZM103.583 21.9165L105.808 15.0186H107.377L104.156 24H102.986L99.7318 15.0186H101.301L103.583 21.9165ZM110.523 24H108.987V15.0186H110.523V24ZM108.863 12.6362C108.863 12.3872 108.937 12.1769 109.087 12.0054C109.242 11.8338 109.469 11.748 109.767 11.748C110.066 11.748 110.293 11.8338 110.448 12.0054C110.603 12.1769 110.681 12.3872 110.681 12.6362C110.681 12.8853 110.603 13.0928 110.448 13.2588C110.293 13.4248 110.066 13.5078 109.767 13.5078C109.469 13.5078 109.242 13.4248 109.087 13.2588C108.937 13.0928 108.863 12.8853 108.863 12.6362ZM116.591 22.9126C117.139 22.9126 117.617 22.7466 118.027 22.4146C118.436 22.0825 118.663 21.6675 118.707 21.1694H120.16C120.132 21.6841 119.955 22.1738 119.629 22.6387C119.302 23.1035 118.865 23.4743 118.317 23.751C117.775 24.0277 117.199 24.166 116.591 24.166C115.368 24.166 114.394 23.7593 113.669 22.9458C112.949 22.1268 112.59 21.009 112.59 19.5923V19.335C112.59 18.4606 112.75 17.6831 113.071 17.0024C113.392 16.3218 113.851 15.7933 114.449 15.417C115.052 15.0407 115.763 14.8525 116.582 14.8525C117.59 14.8525 118.425 15.1541 119.089 15.7573C119.759 16.3605 120.116 17.1436 120.16 18.1064H118.707C118.663 17.5254 118.442 17.0495 118.043 16.6787C117.65 16.3024 117.163 16.1143 116.582 16.1143C115.802 16.1143 115.196 16.3965 114.765 16.9609C114.338 17.5199 114.125 18.3306 114.125 19.3931V19.6836C114.125 20.7184 114.338 21.5153 114.765 22.0742C115.191 22.6331 115.799 22.9126 116.591 22.9126ZM125.614 24.166C124.396 24.166 123.406 23.7676 122.642 22.9707C121.878 22.1683 121.496 21.0975 121.496 19.7583V19.4761C121.496 18.5851 121.665 17.791 122.003 17.0938C122.346 16.391 122.822 15.8431 123.431 15.4502C124.045 15.0518 124.709 14.8525 125.423 14.8525C126.59 14.8525 127.498 15.2371 128.145 16.0063C128.793 16.7756 129.117 17.8768 129.117 19.3101V19.9492H123.032C123.054 20.8346 123.312 21.5513 123.804 22.0991C124.302 22.6414 124.933 22.9126 125.697 22.9126C126.239 22.9126 126.698 22.8019 127.075 22.5806C127.451 22.3592 127.78 22.0659 128.062 21.7007L129 22.4312C128.248 23.5877 127.119 24.166 125.614 24.166ZM125.423 16.1143C124.803 16.1143 124.283 16.3411 123.862 16.7949C123.442 17.2432 123.182 17.874 123.082 18.6875H127.581V18.5713C127.537 17.791 127.326 17.1878 126.95 16.7617C126.574 16.3301 126.065 16.1143 125.423 16.1143ZM136.131 21.6177C136.131 21.2026 135.973 20.8817 135.658 20.6548C135.348 20.4224 134.803 20.2231 134.022 20.0571C133.248 19.8911 132.631 19.6919 132.171 19.4595C131.717 19.2271 131.38 18.9504 131.159 18.6294C130.943 18.3084 130.835 17.9266 130.835 17.4839C130.835 16.7479 131.145 16.1253 131.765 15.6162C132.39 15.1071 133.187 14.8525 134.155 14.8525C135.173 14.8525 135.998 15.1154 136.629 15.6411C137.265 16.1668 137.583 16.8392 137.583 17.6582H136.039C136.039 17.2376 135.86 16.8752 135.5 16.5708C135.146 16.2664 134.697 16.1143 134.155 16.1143C133.596 16.1143 133.159 16.236 132.844 16.4795C132.528 16.723 132.37 17.0412 132.37 17.4341C132.37 17.8049 132.517 18.0843 132.81 18.2725C133.104 18.4606 133.632 18.6405 134.396 18.812C135.165 18.9836 135.788 19.1883 136.264 19.4263C136.739 19.6642 137.091 19.952 137.318 20.2896C137.55 20.6216 137.666 21.0283 137.666 21.5098C137.666 22.3122 137.345 22.9569 136.703 23.4438C136.062 23.9253 135.229 24.166 134.205 24.166C133.486 24.166 132.849 24.0387 132.296 23.7842C131.742 23.5296 131.308 23.1755 130.993 22.7217C130.683 22.2624 130.528 21.7671 130.528 21.2358H132.063C132.091 21.7505 132.296 22.16 132.678 22.4644C133.065 22.7632 133.574 22.9126 134.205 22.9126C134.786 22.9126 135.251 22.7964 135.599 22.564C135.954 22.326 136.131 22.0106 136.131 21.6177Z" fill="#8E8E8E"/>
<path d="M83.6787 71H80.9541V52.9385L75.4902 54.9453V52.4844L83.2539 49.5693H83.6787V71ZM104.992 61.9033C104.992 65.0771 104.45 67.4355 103.366 68.9785C102.282 70.5215 100.588 71.293 98.2832 71.293C96.0078 71.293 94.3232 70.541 93.2295 69.0371C92.1357 67.5234 91.5693 65.2676 91.5303 62.2695V58.6514C91.5303 55.5166 92.0723 53.1875 93.1562 51.6641C94.2402 50.1406 95.9395 49.3789 98.2539 49.3789C100.549 49.3789 102.238 50.1162 103.322 51.5908C104.406 53.0557 104.963 55.3213 104.992 58.3877V61.9033ZM102.282 58.1973C102.282 55.9023 101.96 54.2324 101.315 53.1875C100.671 52.1328 99.6504 51.6055 98.2539 51.6055C96.8672 51.6055 95.8564 52.1279 95.2217 53.1729C94.5869 54.2178 94.2598 55.8242 94.2402 57.9922V62.3281C94.2402 64.6328 94.5723 66.3369 95.2363 67.4404C95.9102 68.5342 96.9258 69.0811 98.2832 69.0811C99.6211 69.0811 100.612 68.5635 101.257 67.5283C101.911 66.4932 102.253 64.8623 102.282 62.6357V58.1973Z" fill="black"/>
<path d="M66 93L76 111H56L66 93Z" fill="#67CF26"/>
<path d="M84.9072 101.28H87.8809V102.562H84.9072V105.931H83.5449V102.562H80.5713V101.28H83.5449V98.167H84.9072V101.28ZM91.3672 101.009H92.3853C93.0249 100.999 93.5278 100.831 93.894 100.503C94.2603 100.176 94.4434 99.7344 94.4434 99.1777C94.4434 97.9277 93.8208 97.3027 92.5757 97.3027C91.9897 97.3027 91.521 97.4712 91.1694 97.8081C90.8228 98.1401 90.6494 98.582 90.6494 99.1338H89.2944C89.2944 98.2891 89.6021 97.5884 90.2173 97.0317C90.8374 96.4702 91.6235 96.1895 92.5757 96.1895C93.5815 96.1895 94.3701 96.4556 94.9414 96.9878C95.5127 97.52 95.7983 98.2598 95.7983 99.207C95.7983 99.6709 95.647 100.12 95.3442 100.555C95.0464 100.989 94.6387 101.314 94.1211 101.529C94.707 101.714 95.1587 102.022 95.4761 102.452C95.7983 102.881 95.9595 103.406 95.9595 104.026C95.9595 104.983 95.647 105.743 95.022 106.304C94.397 106.866 93.584 107.146 92.583 107.146C91.582 107.146 90.7666 106.875 90.1367 106.333C89.5117 105.792 89.1992 105.076 89.1992 104.188H90.5615C90.5615 104.749 90.7446 105.198 91.1108 105.535C91.4771 105.872 91.9678 106.041 92.583 106.041C93.2373 106.041 93.7378 105.87 94.0845 105.528C94.4312 105.186 94.6045 104.695 94.6045 104.056C94.6045 103.436 94.4141 102.959 94.0332 102.627C93.6523 102.295 93.103 102.125 92.3853 102.115H91.3672V101.009ZM97.9883 106.29C97.9883 106.055 98.0566 105.86 98.1934 105.704C98.335 105.547 98.5449 105.469 98.8232 105.469C99.1016 105.469 99.3115 105.547 99.4531 105.704C99.5996 105.86 99.6729 106.055 99.6729 106.29C99.6729 106.514 99.5996 106.702 99.4531 106.854C99.3115 107.005 99.1016 107.081 98.8232 107.081C98.5449 107.081 98.335 107.005 98.1934 106.854C98.0566 106.702 97.9883 106.514 97.9883 106.29ZM103.745 101.009H104.763C105.403 100.999 105.906 100.831 106.272 100.503C106.638 100.176 106.821 99.7344 106.821 99.1777C106.821 97.9277 106.199 97.3027 104.954 97.3027C104.368 97.3027 103.899 97.4712 103.547 97.8081C103.201 98.1401 103.027 98.582 103.027 99.1338H101.672C101.672 98.2891 101.98 97.5884 102.595 97.0317C103.215 96.4702 104.001 96.1895 104.954 96.1895C105.959 96.1895 106.748 96.4556 107.319 96.9878C107.891 97.52 108.176 98.2598 108.176 99.207C108.176 99.6709 108.025 100.12 107.722 100.555C107.424 100.989 107.017 101.314 106.499 101.529C107.085 101.714 107.537 102.022 107.854 102.452C108.176 102.881 108.337 103.406 108.337 104.026C108.337 104.983 108.025 105.743 107.4 106.304C106.775 106.866 105.962 107.146 104.961 107.146C103.96 107.146 103.145 106.875 102.515 106.333C101.89 105.792 101.577 105.076 101.577 104.188H102.939C102.939 104.749 103.123 105.198 103.489 105.535C103.855 105.872 104.346 106.041 104.961 106.041C105.615 106.041 106.116 105.87 106.462 105.528C106.809 105.186 106.982 104.695 106.982 104.056C106.982 103.436 106.792 102.959 106.411 102.627C106.03 102.295 105.481 102.125 104.763 102.115H103.745V101.009ZM110.081 98.3867C110.081 97.7471 110.283 97.2197 110.688 96.8047C111.099 96.3896 111.624 96.1821 112.263 96.1821C112.913 96.1821 113.438 96.3921 113.838 96.812C114.243 97.2271 114.446 97.7666 114.446 98.4307V98.9507C114.446 99.5952 114.241 100.123 113.831 100.533C113.425 100.938 112.908 101.141 112.278 101.141C111.643 101.141 111.118 100.938 110.703 100.533C110.288 100.123 110.081 99.5781 110.081 98.8994V98.3867ZM111.091 98.9507C111.091 99.3315 111.199 99.6465 111.414 99.8955C111.628 100.14 111.917 100.262 112.278 100.262C112.625 100.262 112.903 100.142 113.113 99.9028C113.328 99.6636 113.435 99.3364 113.435 98.9214V98.3867C113.435 98.0059 113.33 97.6909 113.12 97.4419C112.91 97.1929 112.625 97.0684 112.263 97.0684C111.902 97.0684 111.616 97.1929 111.406 97.4419C111.196 97.6909 111.091 98.0156 111.091 98.416V98.9507ZM115.273 104.385C115.273 103.746 115.476 103.221 115.881 102.811C116.292 102.396 116.816 102.188 117.456 102.188C118.096 102.188 118.621 102.393 119.031 102.803C119.441 103.213 119.646 103.758 119.646 104.437V104.957C119.646 105.596 119.441 106.124 119.031 106.539C118.625 106.949 118.105 107.154 117.471 107.154C116.836 107.154 116.311 106.951 115.896 106.546C115.481 106.136 115.273 105.591 115.273 104.913V104.385ZM116.284 104.957C116.284 105.342 116.392 105.66 116.606 105.909C116.821 106.153 117.109 106.275 117.471 106.275C117.822 106.275 118.103 106.155 118.313 105.916C118.523 105.672 118.628 105.342 118.628 104.927V104.385C118.628 104 118.521 103.685 118.306 103.44C118.096 103.196 117.812 103.074 117.456 103.074C117.109 103.074 116.826 103.196 116.606 103.44C116.392 103.68 116.284 104.004 116.284 104.415V104.957ZM112.585 106.194L111.816 105.711L117.024 97.376L117.793 97.8594L112.585 106.194Z" fill="#67CF26"/>
</svg>
