<svg width="480" height="244" viewBox="0 0 480 244" fill="none" xmlns="http://www.w3.org/2000/svg">
<rect width="480" height="244" rx="10" fill="#F4F1FA"/>
<path d="M300.92 220.04C300.92 220.173 300.853 220.24 300.72 220.24H293.38C293.327 220.24 293.3 220.267 293.3 220.32V225.26C293.3 225.313 293.327 225.34 293.38 225.34H298.52C298.653 225.34 298.72 225.407 298.72 225.54V226.38C298.72 226.513 298.653 226.58 298.52 226.58H293.38C293.327 226.58 293.3 226.607 293.3 226.66V232.8C293.3 232.933 293.233 233 293.1 233H292.08C291.947 233 291.88 232.933 291.88 232.8V219.2C291.88 219.067 291.947 219 292.08 219H300.72C300.853 219 300.92 219.067 300.92 219.2V220.04ZM306.026 233.16C305.066 233.16 304.24 232.913 303.546 232.42C302.853 231.927 302.373 231.247 302.106 230.38C301.92 229.767 301.826 228.947 301.826 227.92C301.826 226.893 301.92 226.08 302.106 225.48C302.36 224.627 302.833 223.953 303.526 223.46C304.22 222.967 305.06 222.72 306.046 222.72C306.993 222.72 307.806 222.967 308.486 223.46C309.18 223.953 309.653 224.62 309.906 225.46C310.093 226.033 310.186 226.853 310.186 227.92C310.186 229 310.093 229.82 309.906 230.38C309.653 231.247 309.18 231.927 308.486 232.42C307.806 232.913 306.986 233.16 306.026 233.16ZM306.026 231.92C306.666 231.92 307.213 231.747 307.666 231.4C308.12 231.04 308.426 230.56 308.586 229.96C308.706 229.48 308.766 228.807 308.766 227.94C308.766 227.06 308.713 226.387 308.606 225.92C308.446 225.32 308.133 224.847 307.666 224.5C307.213 224.14 306.66 223.96 306.006 223.96C305.353 223.96 304.8 224.14 304.346 224.5C303.893 224.847 303.586 225.32 303.426 225.92C303.32 226.387 303.266 227.06 303.266 227.94C303.266 228.82 303.32 229.493 303.426 229.96C303.573 230.56 303.873 231.04 304.326 231.4C304.793 231.747 305.36 231.92 306.026 231.92ZM316.925 233.16C315.965 233.16 315.138 232.913 314.445 232.42C313.752 231.927 313.272 231.247 313.005 230.38C312.818 229.767 312.725 228.947 312.725 227.92C312.725 226.893 312.818 226.08 313.005 225.48C313.258 224.627 313.732 223.953 314.425 223.46C315.118 222.967 315.958 222.72 316.945 222.72C317.892 222.72 318.705 222.967 319.385 223.46C320.078 223.953 320.552 224.62 320.805 225.46C320.992 226.033 321.085 226.853 321.085 227.92C321.085 229 320.992 229.82 320.805 230.38C320.552 231.247 320.078 231.927 319.385 232.42C318.705 232.913 317.885 233.16 316.925 233.16ZM316.925 231.92C317.565 231.92 318.112 231.747 318.565 231.4C319.018 231.04 319.325 230.56 319.485 229.96C319.605 229.48 319.665 228.807 319.665 227.94C319.665 227.06 319.612 226.387 319.505 225.92C319.345 225.32 319.032 224.847 318.565 224.5C318.112 224.14 317.558 223.96 316.905 223.96C316.252 223.96 315.698 224.14 315.245 224.5C314.792 224.847 314.485 225.32 314.325 225.92C314.218 226.387 314.165 227.06 314.165 227.94C314.165 228.82 314.218 229.493 314.325 229.96C314.472 230.56 314.772 231.04 315.225 231.4C315.692 231.747 316.258 231.92 316.925 231.92ZM328.386 223.86C328.386 223.993 328.319 224.06 328.186 224.06H325.926C325.873 224.06 325.846 224.087 325.846 224.14V230.04C325.846 230.68 325.986 231.133 326.266 231.4C326.559 231.653 327.013 231.78 327.626 231.78H328.126C328.259 231.78 328.326 231.847 328.326 231.98V232.8C328.326 232.933 328.259 233 328.126 233C327.966 233.013 327.719 233.02 327.386 233.02C326.426 233.02 325.699 232.84 325.206 232.48C324.713 232.12 324.466 231.453 324.466 230.48V224.14C324.466 224.087 324.439 224.06 324.386 224.06H323.166C323.033 224.06 322.966 223.993 322.966 223.86V223.08C322.966 222.947 323.033 222.88 323.166 222.88H324.386C324.439 222.88 324.466 222.853 324.466 222.8V220.48C324.466 220.347 324.533 220.28 324.666 220.28H325.646C325.779 220.28 325.846 220.347 325.846 220.48V222.8C325.846 222.853 325.873 222.88 325.926 222.88H328.186C328.319 222.88 328.386 222.947 328.386 223.08V223.86ZM335.131 220.24C334.398 220.24 333.898 220.407 333.631 220.74C333.365 221.06 333.231 221.613 333.231 222.4V222.8C333.231 222.853 333.258 222.88 333.311 222.88H335.551C335.685 222.88 335.751 222.947 335.751 223.08V223.98C335.751 224.113 335.685 224.18 335.551 224.18H333.311C333.258 224.18 333.231 224.207 333.231 224.26V232.8C333.231 232.933 333.165 233 333.031 233H332.031C331.898 233 331.831 232.933 331.831 232.8V224.26C331.831 224.207 331.805 224.18 331.751 224.18H330.411C330.278 224.18 330.211 224.113 330.211 223.98V223.08C330.211 222.947 330.278 222.88 330.411 222.88H331.751C331.805 222.88 331.831 222.853 331.831 222.8V222.32C331.831 221.493 331.925 220.847 332.111 220.38C332.298 219.9 332.618 219.553 333.071 219.34C333.538 219.113 334.185 219 335.011 219H335.591C335.725 219 335.791 219.067 335.791 219.2V220.04C335.791 220.173 335.725 220.24 335.591 220.24H335.131ZM341.409 222.72C342.609 222.72 343.535 223.027 344.189 223.64C344.842 224.253 345.169 225.067 345.169 226.08V232.8C345.169 232.933 345.102 233 344.969 233H343.949C343.815 233 343.749 232.933 343.749 232.8V231.98C343.749 231.953 343.735 231.933 343.709 231.92C343.695 231.907 343.675 231.913 343.649 231.94C343.315 232.34 342.882 232.647 342.349 232.86C341.815 233.06 341.222 233.16 340.569 233.16C339.622 233.16 338.829 232.92 338.189 232.44C337.549 231.96 337.229 231.227 337.229 230.24C337.229 229.24 337.589 228.453 338.309 227.88C339.042 227.293 340.055 227 341.349 227H343.669C343.722 227 343.749 226.973 343.749 226.92V226.16C343.749 225.48 343.555 224.947 343.169 224.56C342.795 224.16 342.209 223.96 341.409 223.96C340.769 223.96 340.249 224.087 339.849 224.34C339.449 224.58 339.202 224.92 339.109 225.36C339.069 225.493 338.989 225.553 338.869 225.54L337.789 225.4C337.642 225.373 337.582 225.32 337.609 225.24C337.715 224.493 338.115 223.887 338.809 223.42C339.502 222.953 340.369 222.72 341.409 222.72ZM340.849 231.94C341.635 231.94 342.315 231.747 342.889 231.36C343.462 230.96 343.749 230.427 343.749 229.76V228.2C343.749 228.147 343.722 228.12 343.669 228.12H341.569C340.689 228.12 339.982 228.3 339.449 228.66C338.915 229.02 338.649 229.52 338.649 230.16C338.649 230.747 338.849 231.193 339.249 231.5C339.662 231.793 340.195 231.94 340.849 231.94ZM348.323 233C348.19 233 348.123 232.933 348.123 232.8V219.2C348.123 219.067 348.19 219 348.323 219H349.343C349.477 219 349.543 219.067 349.543 219.2V232.8C349.543 232.933 349.477 233 349.343 233H348.323ZM352.933 233C352.799 233 352.733 232.933 352.733 232.8V219.2C352.733 219.067 352.799 219 352.933 219H353.953C354.086 219 354.153 219.067 354.153 219.2V232.8C354.153 232.933 354.086 233 353.953 233H352.933ZM367.626 219.2C367.626 219.067 367.693 219 367.826 219H368.846C368.979 219 369.046 219.067 369.046 219.2V232.8C369.046 232.933 368.979 233 368.846 233H367.826C367.693 233 367.626 232.933 367.626 232.8V231.96C367.626 231.933 367.613 231.92 367.586 231.92C367.573 231.907 367.553 231.913 367.526 231.94C367.233 232.327 366.866 232.627 366.426 232.84C365.999 233.053 365.519 233.16 364.986 233.16C364.053 233.16 363.266 232.92 362.626 232.44C361.999 231.96 361.566 231.307 361.326 230.48C361.139 229.88 361.046 229.033 361.046 227.94C361.046 226.833 361.126 226.007 361.286 225.46C361.526 224.607 361.966 223.94 362.606 223.46C363.246 222.967 364.039 222.72 364.986 222.72C365.506 222.72 365.986 222.827 366.426 223.04C366.866 223.24 367.233 223.533 367.526 223.92C367.553 223.947 367.573 223.96 367.586 223.96C367.613 223.947 367.626 223.927 367.626 223.9V219.2ZM367.266 230.38C367.386 230.113 367.473 229.8 367.526 229.44C367.579 229.08 367.606 228.58 367.606 227.94C367.606 227.3 367.579 226.8 367.526 226.44C367.473 226.067 367.379 225.74 367.246 225.46C367.086 225.007 366.819 224.647 366.446 224.38C366.086 224.1 365.653 223.96 365.146 223.96C364.613 223.96 364.153 224.093 363.766 224.36C363.379 224.627 363.099 224.98 362.926 225.42C362.766 225.713 362.646 226.047 362.566 226.42C362.499 226.78 362.466 227.287 362.466 227.94C362.466 228.567 362.493 229.06 362.546 229.42C362.599 229.767 362.693 230.08 362.826 230.36C362.986 230.84 363.266 231.22 363.666 231.5C364.079 231.78 364.566 231.92 365.126 231.92C365.659 231.92 366.106 231.78 366.466 231.5C366.826 231.22 367.093 230.847 367.266 230.38ZM373.224 221.04C372.904 221.04 372.637 220.933 372.424 220.72C372.211 220.507 372.104 220.24 372.104 219.92C372.104 219.587 372.211 219.32 372.424 219.12C372.637 218.907 372.904 218.8 373.224 218.8C373.544 218.8 373.811 218.907 374.024 219.12C374.237 219.32 374.344 219.587 374.344 219.92C374.344 220.24 374.237 220.507 374.024 220.72C373.811 220.933 373.544 221.04 373.224 221.04ZM372.664 232.98C372.531 232.98 372.464 232.913 372.464 232.78V223.06C372.464 222.927 372.531 222.86 372.664 222.86H373.684C373.817 222.86 373.884 222.927 373.884 223.06V232.78C373.884 232.913 373.817 232.98 373.684 232.98H372.664ZM380.682 233.1C379.935 233.1 379.268 232.98 378.682 232.74C378.108 232.5 377.662 232.18 377.342 231.78C377.035 231.38 376.882 230.933 376.882 230.44V230.2C376.882 230.067 376.948 230 377.082 230H378.042C378.175 230 378.242 230.067 378.242 230.2V230.36C378.242 230.8 378.468 231.187 378.922 231.52C379.388 231.84 379.968 232 380.662 232C381.355 232 381.915 231.847 382.342 231.54C382.768 231.22 382.982 230.82 382.982 230.34C382.982 230.007 382.868 229.733 382.642 229.52C382.428 229.307 382.168 229.14 381.862 229.02C381.568 228.9 381.108 228.747 380.482 228.56C379.735 228.347 379.122 228.133 378.642 227.92C378.162 227.707 377.755 227.413 377.422 227.04C377.102 226.653 376.942 226.167 376.942 225.58C376.942 224.727 377.275 224.047 377.942 223.54C378.608 223.033 379.488 222.78 380.582 222.78C381.315 222.78 381.962 222.9 382.522 223.14C383.095 223.38 383.535 223.713 383.842 224.14C384.148 224.553 384.302 225.02 384.302 225.54V225.6C384.302 225.733 384.235 225.8 384.102 225.8H383.162C383.028 225.8 382.962 225.733 382.962 225.6V225.54C382.962 225.087 382.742 224.707 382.302 224.4C381.875 224.093 381.295 223.94 380.562 223.94C379.882 223.94 379.335 224.08 378.922 224.36C378.508 224.627 378.302 225 378.302 225.48C378.302 225.933 378.502 226.28 378.902 226.52C379.302 226.76 379.922 227 380.762 227.24C381.535 227.467 382.162 227.68 382.642 227.88C383.122 228.08 383.535 228.373 383.882 228.76C384.228 229.133 384.402 229.627 384.402 230.24C384.402 231.107 384.062 231.8 383.382 232.32C382.702 232.84 381.802 233.1 380.682 233.1ZM391.511 223.86C391.511 223.993 391.444 224.06 391.311 224.06H389.051C388.998 224.06 388.971 224.087 388.971 224.14V230.04C388.971 230.68 389.111 231.133 389.391 231.4C389.684 231.653 390.138 231.78 390.751 231.78H391.251C391.384 231.78 391.451 231.847 391.451 231.98V232.8C391.451 232.933 391.384 233 391.251 233C391.091 233.013 390.844 233.02 390.511 233.02C389.551 233.02 388.824 232.84 388.331 232.48C387.838 232.12 387.591 231.453 387.591 230.48V224.14C387.591 224.087 387.564 224.06 387.511 224.06H386.291C386.158 224.06 386.091 223.993 386.091 223.86V223.08C386.091 222.947 386.158 222.88 386.291 222.88H387.511C387.564 222.88 387.591 222.853 387.591 222.8V220.48C387.591 220.347 387.658 220.28 387.791 220.28H388.771C388.904 220.28 388.971 220.347 388.971 220.48V222.8C388.971 222.853 388.998 222.88 389.051 222.88H391.311C391.444 222.88 391.511 222.947 391.511 223.08V223.86ZM398.336 222.78C398.776 222.78 399.156 222.867 399.476 223.04C399.583 223.093 399.623 223.18 399.596 223.3L399.376 224.28C399.336 224.413 399.25 224.453 399.116 224.4C398.89 224.307 398.63 224.26 398.336 224.26L398.076 224.28C397.383 224.307 396.81 224.567 396.356 225.06C395.903 225.54 395.676 226.153 395.676 226.9V232.8C395.676 232.933 395.61 233 395.476 233H394.456C394.323 233 394.256 232.933 394.256 232.8V223.08C394.256 222.947 394.323 222.88 394.456 222.88H395.476C395.61 222.88 395.676 222.947 395.676 223.08V224.3C395.676 224.34 395.683 224.367 395.696 224.38C395.723 224.38 395.743 224.367 395.756 224.34C396.036 223.847 396.39 223.467 396.816 223.2C397.256 222.92 397.763 222.78 398.336 222.78ZM402.501 221.04C402.181 221.04 401.915 220.933 401.701 220.72C401.488 220.507 401.381 220.24 401.381 219.92C401.381 219.587 401.488 219.32 401.701 219.12C401.915 218.907 402.181 218.8 402.501 218.8C402.821 218.8 403.088 218.907 403.301 219.12C403.515 219.32 403.621 219.587 403.621 219.92C403.621 220.24 403.515 220.507 403.301 220.72C403.088 220.933 402.821 221.04 402.501 221.04ZM401.941 232.98C401.808 232.98 401.741 232.913 401.741 232.78V223.06C401.741 222.927 401.808 222.86 401.941 222.86H402.961C403.095 222.86 403.161 222.927 403.161 223.06V232.78C403.161 232.913 403.095 232.98 402.961 232.98H401.941ZM414.419 225.46C414.579 226.06 414.659 226.887 414.659 227.94C414.659 229.033 414.566 229.88 414.379 230.48C414.126 231.307 413.686 231.96 413.059 232.44C412.432 232.92 411.652 233.16 410.719 233.16C410.186 233.16 409.699 233.053 409.259 232.84C408.819 232.627 408.452 232.32 408.159 231.92C408.146 231.893 408.126 231.887 408.099 231.9C408.072 231.9 408.059 231.913 408.059 231.94V232.8C408.059 232.933 407.992 233 407.859 233H406.839C406.706 233 406.639 232.933 406.639 232.8V219.2C406.639 219.067 406.706 219 406.839 219H407.859C407.992 219 408.059 219.067 408.059 219.2V223.92C408.059 223.947 408.066 223.967 408.079 223.98C408.106 223.98 408.132 223.967 408.159 223.94C408.452 223.553 408.819 223.253 409.259 223.04C409.699 222.827 410.186 222.72 410.719 222.72C411.666 222.72 412.459 222.967 413.099 223.46C413.739 223.94 414.179 224.607 414.419 225.46ZM412.879 230.36C413.012 230.08 413.106 229.767 413.159 229.42C413.212 229.06 413.239 228.567 413.239 227.94C413.239 227.287 413.199 226.78 413.119 226.42C413.052 226.047 412.939 225.713 412.779 225.42C412.606 224.98 412.326 224.627 411.939 224.36C411.552 224.093 411.092 223.96 410.559 223.96C410.052 223.96 409.612 224.1 409.239 224.38C408.879 224.647 408.619 225.007 408.459 225.46C408.326 225.74 408.226 226.06 408.159 226.42C408.106 226.78 408.079 227.287 408.079 227.94C408.079 228.58 408.106 229.08 408.159 229.44C408.226 229.787 408.319 230.1 408.439 230.38C408.612 230.847 408.879 231.22 409.239 231.5C409.599 231.78 410.046 231.92 410.579 231.92C411.139 231.92 411.619 231.78 412.019 231.5C412.432 231.22 412.719 230.84 412.879 230.36ZM423.677 223.08C423.677 222.947 423.744 222.88 423.877 222.88H424.897C425.03 222.88 425.097 222.947 425.097 223.08V232.8C425.097 232.933 425.03 233 424.897 233H423.877C423.744 233 423.677 232.933 423.677 232.8V231.94C423.677 231.913 423.664 231.893 423.637 231.88C423.61 231.867 423.59 231.873 423.577 231.9C423.017 232.727 422.13 233.14 420.917 233.14C420.277 233.14 419.684 233.013 419.137 232.76C418.604 232.493 418.177 232.113 417.857 231.62C417.55 231.127 417.397 230.533 417.397 229.84V223.08C417.397 222.947 417.464 222.88 417.597 222.88H418.617C418.75 222.88 418.817 222.947 418.817 223.08V229.42C418.817 230.18 419.03 230.787 419.457 231.24C419.884 231.68 420.464 231.9 421.197 231.9C421.957 231.9 422.557 231.673 422.997 231.22C423.45 230.767 423.677 230.167 423.677 229.42V223.08ZM432.82 223.86C432.82 223.993 432.753 224.06 432.62 224.06H430.36C430.306 224.06 430.28 224.087 430.28 224.14V230.04C430.28 230.68 430.42 231.133 430.7 231.4C430.993 231.653 431.446 231.78 432.06 231.78H432.56C432.693 231.78 432.76 231.847 432.76 231.98V232.8C432.76 232.933 432.693 233 432.56 233C432.4 233.013 432.153 233.02 431.82 233.02C430.86 233.02 430.133 232.84 429.64 232.48C429.146 232.12 428.9 231.453 428.9 230.48V224.14C428.9 224.087 428.873 224.06 428.82 224.06H427.6C427.466 224.06 427.4 223.993 427.4 223.86V223.08C427.4 222.947 427.466 222.88 427.6 222.88H428.82C428.873 222.88 428.9 222.853 428.9 222.8V220.48C428.9 220.347 428.966 220.28 429.1 220.28H430.08C430.213 220.28 430.28 220.347 430.28 220.48V222.8C430.28 222.853 430.306 222.88 430.36 222.88H432.62C432.753 222.88 432.82 222.947 432.82 223.08V223.86ZM436.525 221.04C436.205 221.04 435.938 220.933 435.725 220.72C435.512 220.507 435.405 220.24 435.405 219.92C435.405 219.587 435.512 219.32 435.725 219.12C435.938 218.907 436.205 218.8 436.525 218.8C436.845 218.8 437.112 218.907 437.325 219.12C437.538 219.32 437.645 219.587 437.645 219.92C437.645 220.24 437.538 220.507 437.325 220.72C437.112 220.933 436.845 221.04 436.525 221.04ZM435.965 232.98C435.832 232.98 435.765 232.913 435.765 232.78V223.06C435.765 222.927 435.832 222.86 435.965 222.86H436.985C437.118 222.86 437.185 222.927 437.185 223.06V232.78C437.185 232.913 437.118 232.98 436.985 232.98H435.965ZM444.523 233.16C443.563 233.16 442.736 232.913 442.043 232.42C441.349 231.927 440.869 231.247 440.603 230.38C440.416 229.767 440.323 228.947 440.323 227.92C440.323 226.893 440.416 226.08 440.603 225.48C440.856 224.627 441.329 223.953 442.023 223.46C442.716 222.967 443.556 222.72 444.543 222.72C445.489 222.72 446.303 222.967 446.983 223.46C447.676 223.953 448.149 224.62 448.403 225.46C448.589 226.033 448.683 226.853 448.683 227.92C448.683 229 448.589 229.82 448.403 230.38C448.149 231.247 447.676 231.927 446.983 232.42C446.303 232.913 445.483 233.16 444.523 233.16ZM444.523 231.92C445.163 231.92 445.709 231.747 446.163 231.4C446.616 231.04 446.923 230.56 447.083 229.96C447.203 229.48 447.263 228.807 447.263 227.94C447.263 227.06 447.209 226.387 447.103 225.92C446.943 225.32 446.629 224.847 446.163 224.5C445.709 224.14 445.156 223.96 444.503 223.96C443.849 223.96 443.296 224.14 442.843 224.5C442.389 224.847 442.083 225.32 441.923 225.92C441.816 226.387 441.763 227.06 441.763 227.94C441.763 228.82 441.816 229.493 441.923 229.96C442.069 230.56 442.369 231.04 442.823 231.4C443.289 231.747 443.856 231.92 444.523 231.92ZM455.761 222.74C456.828 222.74 457.674 223.053 458.301 223.68C458.941 224.307 459.261 225.147 459.261 226.2V232.8C459.261 232.933 459.194 233 459.061 233H458.041C457.908 233 457.841 232.933 457.841 232.8V226.48C457.841 225.747 457.614 225.147 457.161 224.68C456.721 224.213 456.148 223.98 455.441 223.98C454.708 223.98 454.114 224.207 453.661 224.66C453.208 225.113 452.981 225.707 452.981 226.44V232.8C452.981 232.933 452.914 233 452.781 233H451.761C451.628 233 451.561 232.933 451.561 232.8V223.08C451.561 222.947 451.628 222.88 451.761 222.88H452.781C452.914 222.88 452.981 222.947 452.981 223.08V223.94C452.981 223.967 452.988 223.987 453.001 224C453.028 224.013 453.048 224.007 453.061 223.98C453.648 223.153 454.548 222.74 455.761 222.74Z" fill="black"/>
<path d="M384.2 165.98C385.373 165.98 386.313 166.34 387.02 167.06C387.74 167.78 388.1 168.727 388.1 169.9C388.1 171.06 387.733 171.993 387 172.7C386.28 173.407 385.327 173.76 384.14 173.76H380.24C380.187 173.76 380.16 173.787 380.16 173.84V179.8C380.16 179.933 380.093 180 379.96 180H378.94C378.807 180 378.74 179.933 378.74 179.8V166.18C378.74 166.047 378.807 165.98 378.94 165.98H384.2ZM384.04 172.58C384.827 172.58 385.467 172.34 385.96 171.86C386.453 171.367 386.7 170.72 386.7 169.92C386.7 169.107 386.453 168.453 385.96 167.96C385.467 167.467 384.827 167.22 384.04 167.22H380.24C380.187 167.22 380.16 167.247 380.16 167.3V172.5C380.16 172.553 380.187 172.58 380.24 172.58H384.04ZM396.556 170.08C396.556 169.947 396.623 169.88 396.756 169.88H397.776C397.909 169.88 397.976 169.947 397.976 170.08V179.8C397.976 179.933 397.909 180 397.776 180H396.756C396.623 180 396.556 179.933 396.556 179.8V178.94C396.556 178.913 396.543 178.893 396.516 178.88C396.489 178.867 396.469 178.873 396.456 178.9C395.896 179.727 395.009 180.14 393.796 180.14C393.156 180.14 392.563 180.013 392.016 179.76C391.483 179.493 391.056 179.113 390.736 178.62C390.429 178.127 390.276 177.533 390.276 176.84V170.08C390.276 169.947 390.343 169.88 390.476 169.88H391.496C391.629 169.88 391.696 169.947 391.696 170.08V176.42C391.696 177.18 391.909 177.787 392.336 178.24C392.763 178.68 393.343 178.9 394.076 178.9C394.836 178.9 395.436 178.673 395.876 178.22C396.329 177.767 396.556 177.167 396.556 176.42V170.08ZM405.359 169.74C406.425 169.74 407.272 170.053 407.899 170.68C408.539 171.307 408.859 172.147 408.859 173.2V179.8C408.859 179.933 408.792 180 408.659 180H407.639C407.505 180 407.439 179.933 407.439 179.8V173.48C407.439 172.747 407.212 172.147 406.759 171.68C406.319 171.213 405.745 170.98 405.039 170.98C404.305 170.98 403.712 171.207 403.259 171.66C402.805 172.113 402.579 172.707 402.579 173.44V179.8C402.579 179.933 402.512 180 402.379 180H401.359C401.225 180 401.159 179.933 401.159 179.8V170.08C401.159 169.947 401.225 169.88 401.359 169.88H402.379C402.512 169.88 402.579 169.947 402.579 170.08V170.94C402.579 170.967 402.585 170.987 402.599 171C402.625 171.013 402.645 171.007 402.659 170.98C403.245 170.153 404.145 169.74 405.359 169.74ZM419.563 173.24C419.616 173.613 419.643 174.08 419.643 174.64V175.28C419.643 175.413 419.576 175.48 419.443 175.48H412.983C412.93 175.48 412.903 175.507 412.903 175.56C412.93 176.293 412.97 176.767 413.023 176.98C413.17 177.58 413.483 178.053 413.963 178.4C414.443 178.747 415.056 178.92 415.803 178.92C416.363 178.92 416.856 178.793 417.283 178.54C417.71 178.287 418.043 177.927 418.283 177.46C418.363 177.34 418.456 177.313 418.563 177.38L419.343 177.84C419.45 177.907 419.476 178 419.423 178.12C419.09 178.76 418.59 179.267 417.923 179.64C417.256 180 416.49 180.18 415.623 180.18C414.676 180.167 413.883 179.94 413.243 179.5C412.603 179.06 412.143 178.447 411.863 177.66C411.623 177.02 411.503 176.1 411.503 174.9C411.503 174.34 411.51 173.887 411.523 173.54C411.55 173.18 411.603 172.86 411.683 172.58C411.91 171.713 412.363 171.02 413.043 170.5C413.736 169.98 414.57 169.72 415.543 169.72C416.756 169.72 417.69 170.027 418.343 170.64C418.996 171.253 419.403 172.12 419.563 173.24ZM415.543 170.96C414.89 170.96 414.343 171.133 413.903 171.48C413.476 171.813 413.196 172.267 413.063 172.84C412.983 173.12 412.93 173.573 412.903 174.2C412.903 174.253 412.93 174.28 412.983 174.28H418.163C418.216 174.28 418.243 174.253 418.243 174.2C418.216 173.6 418.176 173.173 418.123 172.92C417.976 172.32 417.676 171.847 417.223 171.5C416.783 171.14 416.223 170.96 415.543 170.96Z" fill="black"/>
<path d="M387.96 67.14C388.027 67.0467 388.107 67 388.2 67H389.24C389.373 67 389.44 67.0667 389.44 67.2V80.8C389.44 80.9333 389.373 81 389.24 81H388.22C388.087 81 388.02 80.9333 388.02 80.8V69.68C388.02 69.64 388.007 69.6133 387.98 69.6C387.953 69.5867 387.933 69.6 387.92 69.64L384.66 74.64C384.593 74.7333 384.513 74.78 384.42 74.78H383.9C383.807 74.78 383.727 74.74 383.66 74.66L380.4 69.7C380.387 69.66 380.367 69.6467 380.34 69.66C380.313 69.6733 380.3 69.7 380.3 69.74V80.8C380.3 80.9333 380.233 81 380.1 81H379.08C378.947 81 378.88 80.9333 378.88 80.8V67.2C378.88 67.0667 378.947 67 379.08 67H380.12C380.227 67 380.307 67.04 380.36 67.12L384.12 72.82C384.133 72.8333 384.153 72.84 384.18 72.84C384.207 72.84 384.227 72.8333 384.24 72.82L387.96 67.14ZM399.017 71.08C399.017 70.9467 399.084 70.88 399.217 70.88H400.237C400.37 70.88 400.437 70.9467 400.437 71.08V80.8C400.437 80.9333 400.37 81 400.237 81H399.217C399.084 81 399.017 80.9333 399.017 80.8V79.94C399.017 79.9133 399.004 79.8933 398.977 79.88C398.95 79.8667 398.93 79.8733 398.917 79.9C398.357 80.7267 397.47 81.14 396.257 81.14C395.617 81.14 395.024 81.0133 394.477 80.76C393.944 80.4933 393.517 80.1133 393.197 79.62C392.89 79.1267 392.737 78.5333 392.737 77.84V71.08C392.737 70.9467 392.804 70.88 392.937 70.88H393.957C394.09 70.88 394.157 70.9467 394.157 71.08V77.42C394.157 78.18 394.37 78.7867 394.797 79.24C395.224 79.68 395.804 79.9 396.537 79.9C397.297 79.9 397.897 79.6733 398.337 79.22C398.79 78.7667 399.017 78.1667 399.017 77.42V71.08ZM413.86 70.74C414.86 70.74 415.646 71.04 416.22 71.64C416.806 72.24 417.1 73.06 417.1 74.1V80.8C417.1 80.9333 417.033 81 416.9 81H415.9C415.766 81 415.7 80.9333 415.7 80.8V74.38C415.7 73.6467 415.486 73.0667 415.06 72.64C414.646 72.2 414.1 71.98 413.42 71.98C412.713 71.98 412.14 72.1933 411.7 72.62C411.273 73.0467 411.06 73.62 411.06 74.34V80.8C411.06 80.9333 410.993 81 410.86 81H409.84C409.706 81 409.64 80.9333 409.64 80.8V74.38C409.64 73.6467 409.433 73.0667 409.02 72.64C408.606 72.2 408.053 71.98 407.36 71.98C406.653 71.98 406.086 72.1933 405.66 72.62C405.246 73.0467 405.04 73.62 405.04 74.34V80.8C405.04 80.9333 404.973 81 404.84 81H403.82C403.686 81 403.62 80.9333 403.62 80.8V71.08C403.62 70.9467 403.686 70.88 403.82 70.88H404.84C404.973 70.88 405.04 70.9467 405.04 71.08V71.88C405.04 71.9067 405.046 71.9267 405.06 71.94C405.086 71.94 405.113 71.9267 405.14 71.9C405.433 71.5133 405.806 71.2267 406.26 71.04C406.726 70.84 407.24 70.74 407.8 70.74C408.493 70.74 409.086 70.88 409.58 71.16C410.073 71.44 410.446 71.8467 410.7 72.38C410.726 72.4467 410.76 72.4467 410.8 72.38C411.093 71.8333 411.506 71.4267 412.04 71.16C412.573 70.88 413.18 70.74 413.86 70.74ZM427.923 73.46C428.083 74.06 428.163 74.8867 428.163 75.94C428.163 77.0333 428.07 77.88 427.883 78.48C427.63 79.3067 427.19 79.96 426.563 80.44C425.936 80.92 425.156 81.16 424.223 81.16C423.69 81.16 423.203 81.0533 422.763 80.84C422.323 80.6267 421.956 80.32 421.663 79.92C421.65 79.8933 421.63 79.8867 421.603 79.9C421.576 79.9 421.563 79.9133 421.563 79.94V80.8C421.563 80.9333 421.496 81 421.363 81H420.343C420.21 81 420.143 80.9333 420.143 80.8V67.2C420.143 67.0667 420.21 67 420.343 67H421.363C421.496 67 421.563 67.0667 421.563 67.2V71.92C421.563 71.9467 421.57 71.9667 421.583 71.98C421.61 71.98 421.636 71.9667 421.663 71.94C421.956 71.5533 422.323 71.2533 422.763 71.04C423.203 70.8267 423.69 70.72 424.223 70.72C425.17 70.72 425.963 70.9667 426.603 71.46C427.243 71.94 427.683 72.6067 427.923 73.46ZM426.383 78.36C426.516 78.08 426.61 77.7667 426.663 77.42C426.716 77.06 426.743 76.5667 426.743 75.94C426.743 75.2867 426.703 74.78 426.623 74.42C426.556 74.0467 426.443 73.7133 426.283 73.42C426.11 72.98 425.83 72.6267 425.443 72.36C425.056 72.0933 424.596 71.96 424.063 71.96C423.556 71.96 423.116 72.1 422.743 72.38C422.383 72.6467 422.123 73.0067 421.963 73.46C421.83 73.74 421.73 74.06 421.663 74.42C421.61 74.78 421.583 75.2867 421.583 75.94C421.583 76.58 421.61 77.08 421.663 77.44C421.73 77.7867 421.823 78.1 421.943 78.38C422.116 78.8467 422.383 79.22 422.743 79.5C423.103 79.78 423.55 79.92 424.083 79.92C424.643 79.92 425.123 79.78 425.523 79.5C425.936 79.22 426.223 78.84 426.383 78.36ZM434.561 70.72C435.761 70.72 436.688 71.0267 437.341 71.64C437.994 72.2533 438.321 73.0667 438.321 74.08V80.8C438.321 80.9333 438.254 81 438.121 81H437.101C436.968 81 436.901 80.9333 436.901 80.8V79.98C436.901 79.9533 436.888 79.9333 436.861 79.92C436.848 79.9067 436.828 79.9133 436.801 79.94C436.468 80.34 436.034 80.6467 435.501 80.86C434.968 81.06 434.374 81.16 433.721 81.16C432.774 81.16 431.981 80.92 431.341 80.44C430.701 79.96 430.381 79.2267 430.381 78.24C430.381 77.24 430.741 76.4533 431.461 75.88C432.194 75.2933 433.208 75 434.501 75H436.821C436.874 75 436.901 74.9733 436.901 74.92V74.16C436.901 73.48 436.708 72.9467 436.321 72.56C435.948 72.16 435.361 71.96 434.561 71.96C433.921 71.96 433.401 72.0867 433.001 72.34C432.601 72.58 432.354 72.92 432.261 73.36C432.221 73.4933 432.141 73.5533 432.021 73.54L430.941 73.4C430.794 73.3733 430.734 73.32 430.761 73.24C430.868 72.4933 431.268 71.8867 431.961 71.42C432.654 70.9533 433.521 70.72 434.561 70.72ZM434.001 79.94C434.788 79.94 435.468 79.7467 436.041 79.36C436.614 78.96 436.901 78.4267 436.901 77.76V76.2C436.901 76.1467 436.874 76.12 436.821 76.12H434.721C433.841 76.12 433.134 76.3 432.601 76.66C432.068 77.02 431.801 77.52 431.801 78.16C431.801 78.7467 432.001 79.1933 432.401 79.5C432.814 79.7933 433.348 79.94 434.001 79.94ZM442.236 69.04C441.916 69.04 441.649 68.9333 441.436 68.72C441.222 68.5067 441.116 68.24 441.116 67.92C441.116 67.5867 441.222 67.32 441.436 67.12C441.649 66.9067 441.916 66.8 442.236 66.8C442.556 66.8 442.822 66.9067 443.036 67.12C443.249 67.32 443.356 67.5867 443.356 67.92C443.356 68.24 443.249 68.5067 443.036 68.72C442.822 68.9333 442.556 69.04 442.236 69.04ZM441.676 80.98C441.542 80.98 441.476 80.9133 441.476 80.78V71.06C441.476 70.9267 441.542 70.86 441.676 70.86H442.696C442.829 70.86 442.896 70.9267 442.896 71.06V80.78C442.896 80.9133 442.829 80.98 442.696 80.98H441.676Z" fill="black"/>
<path d="M379.08 114C378.947 114 378.88 113.933 378.88 113.8V100.2C378.88 100.067 378.947 100 379.08 100H383.8C385.12 100 386.167 100.347 386.94 101.04C387.727 101.733 388.12 102.673 388.12 103.86V110.14C388.12 111.327 387.727 112.267 386.94 112.96C386.167 113.653 385.12 114 383.8 114H379.08ZM380.3 112.68C380.3 112.733 380.327 112.76 380.38 112.76H383.86C384.727 112.76 385.413 112.507 385.92 112C386.44 111.493 386.7 110.813 386.7 109.96V104.06C386.7 103.193 386.447 102.507 385.94 102C385.433 101.493 384.74 101.24 383.86 101.24H380.38C380.327 101.24 380.3 101.267 380.3 101.32V112.68ZM398.723 107.24C398.777 107.613 398.803 108.08 398.803 108.64V109.28C398.803 109.413 398.737 109.48 398.603 109.48H392.143C392.09 109.48 392.063 109.507 392.063 109.56C392.09 110.293 392.13 110.767 392.183 110.98C392.33 111.58 392.643 112.053 393.123 112.4C393.603 112.747 394.217 112.92 394.963 112.92C395.523 112.92 396.017 112.793 396.443 112.54C396.87 112.287 397.203 111.927 397.443 111.46C397.523 111.34 397.617 111.313 397.723 111.38L398.503 111.84C398.61 111.907 398.637 112 398.583 112.12C398.25 112.76 397.75 113.267 397.083 113.64C396.417 114 395.65 114.18 394.783 114.18C393.837 114.167 393.043 113.94 392.403 113.5C391.763 113.06 391.303 112.447 391.023 111.66C390.783 111.02 390.663 110.1 390.663 108.9C390.663 108.34 390.67 107.887 390.683 107.54C390.71 107.18 390.763 106.86 390.843 106.58C391.07 105.713 391.523 105.02 392.203 104.5C392.897 103.98 393.73 103.72 394.703 103.72C395.917 103.72 396.85 104.027 397.503 104.64C398.157 105.253 398.563 106.12 398.723 107.24ZM394.703 104.96C394.05 104.96 393.503 105.133 393.063 105.48C392.637 105.813 392.357 106.267 392.223 106.84C392.143 107.12 392.09 107.573 392.063 108.2C392.063 108.253 392.09 108.28 392.143 108.28H397.323C397.377 108.28 397.403 108.253 397.403 108.2C397.377 107.6 397.337 107.173 397.283 106.92C397.137 106.32 396.837 105.847 396.383 105.5C395.943 105.14 395.383 104.96 394.703 104.96ZM401.827 114C401.694 114 401.627 113.933 401.627 113.8V100.2C401.627 100.067 401.694 100 401.827 100H402.847C402.981 100 403.047 100.067 403.047 100.2V113.8C403.047 113.933 402.981 114 402.847 114H401.827ZM410.456 103.74C411.523 103.74 412.37 104.053 412.996 104.68C413.636 105.307 413.956 106.147 413.956 107.2V113.8C413.956 113.933 413.89 114 413.756 114H412.736C412.603 114 412.536 113.933 412.536 113.8V107.48C412.536 106.747 412.31 106.147 411.856 105.68C411.416 105.213 410.843 104.98 410.136 104.98C409.403 104.98 408.81 105.207 408.356 105.66C407.903 106.113 407.676 106.707 407.676 107.44V113.8C407.676 113.933 407.61 114 407.476 114H406.456C406.323 114 406.256 113.933 406.256 113.8V100.2C406.256 100.067 406.323 100 406.456 100H407.476C407.61 100 407.676 100.067 407.676 100.2V104.94C407.676 104.967 407.683 104.987 407.696 105C407.723 105.013 407.743 105.007 407.756 104.98C408.343 104.153 409.243 103.74 410.456 103.74ZM417.998 102.04C417.678 102.04 417.411 101.933 417.198 101.72C416.984 101.507 416.878 101.24 416.878 100.92C416.878 100.587 416.984 100.32 417.198 100.12C417.411 99.9067 417.678 99.8 417.998 99.8C418.318 99.8 418.584 99.9067 418.798 100.12C419.011 100.32 419.118 100.587 419.118 100.92C419.118 101.24 419.011 101.507 418.798 101.72C418.584 101.933 418.318 102.04 417.998 102.04ZM417.438 113.98C417.304 113.98 417.238 113.913 417.238 113.78V104.06C417.238 103.927 417.304 103.86 417.438 103.86H418.458C418.591 103.86 418.658 103.927 418.658 104.06V113.78C418.658 113.913 418.591 113.98 418.458 113.98H417.438Z" fill="black"/>
<path d="M383.2 147.16C382.253 147.16 381.42 146.967 380.7 146.58C379.98 146.193 379.42 145.653 379.02 144.96C378.633 144.253 378.44 143.44 378.44 142.52V137.48C378.44 136.56 378.633 135.753 379.02 135.06C379.42 134.353 379.98 133.807 380.7 133.42C381.42 133.033 382.253 132.84 383.2 132.84C384.147 132.84 384.98 133.033 385.7 133.42C386.433 133.807 386.993 134.353 387.38 135.06C387.78 135.753 387.98 136.56 387.98 137.48V142.52C387.98 143.44 387.78 144.253 387.38 144.96C386.993 145.653 386.433 146.193 385.7 146.58C384.98 146.967 384.147 147.16 383.2 147.16ZM383.2 145.94C384.213 145.94 385.027 145.633 385.64 145.02C386.253 144.407 386.56 143.593 386.56 142.58V137.46C386.56 136.447 386.253 135.633 385.64 135.02C385.027 134.393 384.213 134.08 383.2 134.08C382.2 134.08 381.393 134.393 380.78 135.02C380.167 135.633 379.86 136.447 379.86 137.46V142.58C379.86 143.593 380.167 144.407 380.78 145.02C381.393 145.633 382.2 145.94 383.2 145.94ZM397.302 133.2C397.302 133.067 397.369 133 397.502 133H398.522C398.655 133 398.722 133.067 398.722 133.2V146.8C398.722 146.933 398.655 147 398.522 147H397.502C397.369 147 397.302 146.933 397.302 146.8V145.96C397.302 145.933 397.289 145.92 397.262 145.92C397.249 145.907 397.229 145.913 397.202 145.94C396.909 146.327 396.542 146.627 396.102 146.84C395.675 147.053 395.195 147.16 394.662 147.16C393.729 147.16 392.942 146.92 392.302 146.44C391.675 145.96 391.242 145.307 391.002 144.48C390.815 143.88 390.722 143.033 390.722 141.94C390.722 140.833 390.802 140.007 390.962 139.46C391.202 138.607 391.642 137.94 392.282 137.46C392.922 136.967 393.715 136.72 394.662 136.72C395.182 136.72 395.662 136.827 396.102 137.04C396.542 137.24 396.909 137.533 397.202 137.92C397.229 137.947 397.249 137.96 397.262 137.96C397.289 137.947 397.302 137.927 397.302 137.9V133.2ZM396.942 144.38C397.062 144.113 397.149 143.8 397.202 143.44C397.255 143.08 397.282 142.58 397.282 141.94C397.282 141.3 397.255 140.8 397.202 140.44C397.149 140.067 397.055 139.74 396.922 139.46C396.762 139.007 396.495 138.647 396.122 138.38C395.762 138.1 395.329 137.96 394.822 137.96C394.289 137.96 393.829 138.093 393.442 138.36C393.055 138.627 392.775 138.98 392.602 139.42C392.442 139.713 392.322 140.047 392.242 140.42C392.175 140.78 392.142 141.287 392.142 141.94C392.142 142.567 392.169 143.06 392.222 143.42C392.275 143.767 392.369 144.08 392.502 144.36C392.662 144.84 392.942 145.22 393.342 145.5C393.755 145.78 394.242 145.92 394.802 145.92C395.335 145.92 395.782 145.78 396.142 145.5C396.502 145.22 396.769 144.847 396.942 144.38ZM402.9 135.04C402.58 135.04 402.313 134.933 402.1 134.72C401.887 134.507 401.78 134.24 401.78 133.92C401.78 133.587 401.887 133.32 402.1 133.12C402.313 132.907 402.58 132.8 402.9 132.8C403.22 132.8 403.487 132.907 403.7 133.12C403.913 133.32 404.02 133.587 404.02 133.92C404.02 134.24 403.913 134.507 403.7 134.72C403.487 134.933 403.22 135.04 402.9 135.04ZM402.34 146.98C402.207 146.98 402.14 146.913 402.14 146.78V137.06C402.14 136.927 402.207 136.86 402.34 136.86H403.36C403.493 136.86 403.56 136.927 403.56 137.06V146.78C403.56 146.913 403.493 146.98 403.36 146.98H402.34ZM410.358 147.1C409.611 147.1 408.944 146.98 408.358 146.74C407.784 146.5 407.338 146.18 407.018 145.78C406.711 145.38 406.558 144.933 406.558 144.44V144.2C406.558 144.067 406.624 144 406.757 144H407.718C407.851 144 407.918 144.067 407.918 144.2V144.36C407.918 144.8 408.144 145.187 408.598 145.52C409.064 145.84 409.644 146 410.338 146C411.031 146 411.591 145.847 412.018 145.54C412.444 145.22 412.658 144.82 412.658 144.34C412.658 144.007 412.544 143.733 412.318 143.52C412.104 143.307 411.844 143.14 411.538 143.02C411.244 142.9 410.784 142.747 410.158 142.56C409.411 142.347 408.798 142.133 408.318 141.92C407.838 141.707 407.431 141.413 407.098 141.04C406.778 140.653 406.618 140.167 406.618 139.58C406.618 138.727 406.951 138.047 407.618 137.54C408.284 137.033 409.164 136.78 410.258 136.78C410.991 136.78 411.638 136.9 412.198 137.14C412.771 137.38 413.211 137.713 413.518 138.14C413.824 138.553 413.978 139.02 413.978 139.54V139.6C413.978 139.733 413.911 139.8 413.778 139.8H412.838C412.704 139.8 412.638 139.733 412.638 139.6V139.54C412.638 139.087 412.418 138.707 411.978 138.4C411.551 138.093 410.971 137.94 410.238 137.94C409.558 137.94 409.011 138.08 408.598 138.36C408.184 138.627 407.978 139 407.978 139.48C407.978 139.933 408.178 140.28 408.578 140.52C408.978 140.76 409.598 141 410.438 141.24C411.211 141.467 411.838 141.68 412.318 141.88C412.798 142.08 413.211 142.373 413.558 142.76C413.904 143.133 414.078 143.627 414.078 144.24C414.078 145.107 413.738 145.8 413.058 146.32C412.378 146.84 411.478 147.1 410.358 147.1ZM420.866 136.74C421.933 136.74 422.78 137.053 423.406 137.68C424.046 138.307 424.366 139.147 424.366 140.2V146.8C424.366 146.933 424.3 147 424.166 147H423.146C423.013 147 422.946 146.933 422.946 146.8V140.48C422.946 139.747 422.72 139.147 422.266 138.68C421.826 138.213 421.253 137.98 420.546 137.98C419.813 137.98 419.22 138.207 418.766 138.66C418.313 139.113 418.086 139.707 418.086 140.44V146.8C418.086 146.933 418.02 147 417.886 147H416.866C416.733 147 416.666 146.933 416.666 146.8V133.2C416.666 133.067 416.733 133 416.866 133H417.886C418.02 133 418.086 133.067 418.086 133.2V137.94C418.086 137.967 418.093 137.987 418.106 138C418.133 138.013 418.153 138.007 418.166 137.98C418.753 137.153 419.653 136.74 420.866 136.74ZM430.948 136.72C432.148 136.72 433.074 137.027 433.728 137.64C434.381 138.253 434.708 139.067 434.708 140.08V146.8C434.708 146.933 434.641 147 434.508 147H433.488C433.354 147 433.288 146.933 433.288 146.8V145.98C433.288 145.953 433.274 145.933 433.248 145.92C433.234 145.907 433.214 145.913 433.188 145.94C432.854 146.34 432.421 146.647 431.888 146.86C431.354 147.06 430.761 147.16 430.108 147.16C429.161 147.16 428.368 146.92 427.728 146.44C427.088 145.96 426.768 145.227 426.768 144.24C426.768 143.24 427.128 142.453 427.848 141.88C428.581 141.293 429.594 141 430.888 141H433.208C433.261 141 433.288 140.973 433.288 140.92V140.16C433.288 139.48 433.094 138.947 432.708 138.56C432.334 138.16 431.748 137.96 430.948 137.96C430.308 137.96 429.788 138.087 429.388 138.34C428.988 138.58 428.741 138.92 428.648 139.36C428.608 139.493 428.528 139.553 428.408 139.54L427.328 139.4C427.181 139.373 427.121 139.32 427.148 139.24C427.254 138.493 427.654 137.887 428.348 137.42C429.041 136.953 429.908 136.72 430.948 136.72ZM430.388 145.94C431.174 145.94 431.854 145.747 432.428 145.36C433.001 144.96 433.288 144.427 433.288 143.76V142.2C433.288 142.147 433.261 142.12 433.208 142.12H431.108C430.228 142.12 429.521 142.3 428.988 142.66C428.454 143.02 428.188 143.52 428.188 144.16C428.188 144.747 428.388 145.193 428.788 145.5C429.201 145.793 429.734 145.94 430.388 145.94Z" fill="black"/>
<rect x="317" y="58" width="30" height="30" fill="#CBB6F8"/>
<rect x="317" y="91" width="30" height="30" fill="#5E3FBE"/>
<rect x="317" y="124" width="30" height="30" fill="#E5DAFB"/>
<rect x="317" y="157" width="30" height="30" fill="#BFB4D9"/>
<path d="M129.025 122V22C156.732 22 183.197 33.4954 202.109 53.7447L129.025 122Z" fill="#5E3FBE" stroke="white"/>
<path d="M129.025 122L202.109 53.7447C239.805 94.1076 237.644 157.387 197.281 195.084C195.617 196.638 193.9 198.134 192.134 199.571L129.025 122Z" fill="#BFB4D9" stroke="white"/>
<path d="M129.025 122L192.134 199.571C163.155 223.147 123.451 228.605 89.1853 213.721L129.025 122Z" fill="#E5DAFB" stroke="white"/>
<path d="M129.025 122L89.1853 213.721C38.5291 191.718 15.3012 132.816 37.3043 82.1599C53.1708 45.6315 89.1999 22 129.025 22V122Z" fill="#CBB6F8" stroke="white"/>
</svg>
