<svg width="180" height="120" viewBox="0 0 180 120" fill="none" xmlns="http://www.w3.org/2000/svg">
<rect width="180" height="120" rx="10" fill="#F4F1FA"/>
<path d="M49.7533 13.2256H45.8685V24H44.2831V13.2256H40.4066V11.9141H49.7533V13.2256ZM50.0687 19.4263C50.0687 18.5464 50.2403 17.755 50.5834 17.0522C50.932 16.3494 51.4135 15.8071 52.0277 15.4253C52.6475 15.0435 53.3531 14.8525 54.1444 14.8525C55.3674 14.8525 56.3552 15.2759 57.1078 16.1226C57.8659 16.9692 58.245 18.0954 58.245 19.501V19.6089C58.245 20.4832 58.0762 21.269 57.7386 21.9663C57.4066 22.658 56.9279 23.1976 56.3026 23.585C55.6828 23.9723 54.969 24.166 54.161 24.166C52.9436 24.166 51.9558 23.7427 51.1976 22.896C50.445 22.0493 50.0687 20.9287 50.0687 19.5342V19.4263ZM51.6127 19.6089C51.6127 20.605 51.8423 21.4046 52.3016 22.0078C52.7665 22.611 53.3863 22.9126 54.161 22.9126C54.9413 22.9126 55.5611 22.6082 56.0204 21.9995C56.4797 21.3853 56.7094 20.5275 56.7094 19.4263C56.7094 18.4412 56.4742 17.6444 56.0038 17.0356C55.5389 16.4214 54.9191 16.1143 54.1444 16.1143C53.3863 16.1143 52.7748 16.4159 52.3099 17.019C51.8451 17.6222 51.6127 18.4855 51.6127 19.6089ZM62.2543 12.8438V15.0186H63.931V16.2056H62.2543V21.7754C62.2543 22.1351 62.329 22.4062 62.4784 22.5889C62.6278 22.766 62.8824 22.8545 63.2421 22.8545C63.4191 22.8545 63.6626 22.8213 63.9725 22.7549V24C63.5686 24.1107 63.1757 24.166 62.7938 24.166C62.1076 24.166 61.5902 23.9585 61.2416 23.5435C60.8929 23.1284 60.7186 22.5391 60.7186 21.7754V16.2056H59.0834V15.0186H60.7186V12.8438H62.2543ZM71.2772 24C71.1887 23.8229 71.1167 23.5075 71.0614 23.0537C70.3475 23.7952 69.4953 24.166 68.5048 24.166C67.6193 24.166 66.8916 23.917 66.3217 23.4189C65.7572 22.9154 65.475 22.279 65.475 21.5098C65.475 20.5745 65.8291 19.8496 66.5375 19.335C67.2513 18.8148 68.253 18.5547 69.5424 18.5547H71.0365V17.8491C71.0365 17.3123 70.876 16.8862 70.5551 16.5708C70.2341 16.2498 69.7609 16.0894 69.1356 16.0894C68.5878 16.0894 68.1285 16.2277 67.7577 16.5044C67.3869 16.7811 67.2015 17.1159 67.2015 17.5088H65.6576C65.6576 17.0605 65.8153 16.6289 66.1307 16.2139C66.4517 15.7933 66.8833 15.4613 67.4257 15.2178C67.9735 14.9743 68.5739 14.8525 69.2269 14.8525C70.2618 14.8525 71.0725 15.1126 71.6591 15.6328C72.2456 16.1475 72.55 16.8586 72.5721 17.7661V21.8999C72.5721 22.7244 72.6773 23.3802 72.8876 23.8672V24H71.2772ZM68.7289 22.8296C69.2103 22.8296 69.6669 22.7051 70.0985 22.4561C70.5302 22.207 70.8428 21.8833 71.0365 21.4849V19.6421H69.8329C67.9514 19.6421 67.0106 20.1927 67.0106 21.2939C67.0106 21.7754 67.1711 22.1517 67.4921 22.4229C67.813 22.694 68.2253 22.8296 68.7289 22.8296ZM76.6478 24H75.1122V11.25H76.6478V24ZM90.2362 18.6626H85.1644V24H83.5707V11.9141H91.058V13.2256H85.1644V17.3594H90.2362V18.6626ZM92.1371 19.4263C92.1371 18.5464 92.3086 17.755 92.6517 17.0522C93.0004 16.3494 93.4818 15.8071 94.0961 15.4253C94.7159 15.0435 95.4214 14.8525 96.2128 14.8525C97.4358 14.8525 98.4235 15.2759 99.1761 16.1226C99.9343 16.9692 100.313 18.0954 100.313 19.501V19.6089C100.313 20.4832 100.145 21.269 99.807 21.9663C99.475 22.658 98.9963 23.1976 98.371 23.585C97.7512 23.9723 97.0373 24.166 96.2294 24.166C95.0119 24.166 94.0241 23.7427 93.266 22.896C92.5134 22.0493 92.1371 20.9287 92.1371 19.5342V19.4263ZM93.681 19.6089C93.681 20.605 93.9107 21.4046 94.37 22.0078C94.8348 22.611 95.4546 22.9126 96.2294 22.9126C97.0096 22.9126 97.6294 22.6082 98.0887 21.9995C98.5481 21.3853 98.7777 20.5275 98.7777 19.4263C98.7777 18.4412 98.5425 17.6444 98.0721 17.0356C97.6073 16.4214 96.9875 16.1143 96.2128 16.1143C95.4546 16.1143 94.8431 16.4159 94.3783 17.019C93.9135 17.6222 93.681 18.4855 93.681 19.6089ZM101.832 19.4263C101.832 18.5464 102.004 17.755 102.347 17.0522C102.696 16.3494 103.177 15.8071 103.791 15.4253C104.411 15.0435 105.117 14.8525 105.908 14.8525C107.131 14.8525 108.119 15.2759 108.871 16.1226C109.63 16.9692 110.009 18.0954 110.009 19.501V19.6089C110.009 20.4832 109.84 21.269 109.502 21.9663C109.17 22.658 108.692 23.1976 108.066 23.585C107.446 23.9723 106.733 24.166 105.925 24.166C104.707 24.166 103.719 23.7427 102.961 22.896C102.209 22.0493 101.832 20.9287 101.832 19.5342V19.4263ZM103.376 19.6089C103.376 20.605 103.606 21.4046 104.065 22.0078C104.53 22.611 105.15 22.9126 105.925 22.9126C106.705 22.9126 107.325 22.6082 107.784 21.9995C108.243 21.3853 108.473 20.5275 108.473 19.4263C108.473 18.4412 108.238 17.6444 107.767 17.0356C107.303 16.4214 106.683 16.1143 105.908 16.1143C105.15 16.1143 104.538 16.4159 104.074 17.019C103.609 17.6222 103.376 18.4855 103.376 19.6089ZM114.018 12.8438V15.0186H115.695V16.2056H114.018V21.7754C114.018 22.1351 114.093 22.4062 114.242 22.5889C114.391 22.766 114.646 22.8545 115.006 22.8545C115.183 22.8545 115.426 22.8213 115.736 22.7549V24C115.332 24.1107 114.939 24.166 114.557 24.166C113.871 24.166 113.354 23.9585 113.005 23.5435C112.657 23.1284 112.482 22.5391 112.482 21.7754V16.2056H110.847V15.0186H112.482V12.8438H114.018ZM118.251 24V16.2056H116.832V15.0186H118.251V14.0972C118.251 13.1343 118.509 12.39 119.023 11.8643C119.538 11.3385 120.266 11.0757 121.206 11.0757C121.561 11.0757 121.912 11.1227 122.261 11.2168L122.178 12.4619C121.918 12.4121 121.641 12.3872 121.348 12.3872C120.849 12.3872 120.465 12.5339 120.194 12.8271C119.923 13.1149 119.787 13.5299 119.787 14.0723V15.0186H121.704V16.2056H119.787V24H118.251ZM128.951 24C128.863 23.8229 128.791 23.5075 128.735 23.0537C128.021 23.7952 127.169 24.166 126.179 24.166C125.293 24.166 124.565 23.917 123.995 23.4189C123.431 22.9154 123.149 22.279 123.149 21.5098C123.149 20.5745 123.503 19.8496 124.211 19.335C124.925 18.8148 125.927 18.5547 127.216 18.5547H128.71V17.8491C128.71 17.3123 128.55 16.8862 128.229 16.5708C127.908 16.2498 127.435 16.0894 126.809 16.0894C126.262 16.0894 125.802 16.2277 125.432 16.5044C125.061 16.7811 124.875 17.1159 124.875 17.5088H123.331C123.331 17.0605 123.489 16.6289 123.805 16.2139C124.126 15.7933 124.557 15.4613 125.099 15.2178C125.647 14.9743 126.248 14.8525 126.901 14.8525C127.936 14.8525 128.746 15.1126 129.333 15.6328C129.919 16.1475 130.224 16.8586 130.246 17.7661V21.8999C130.246 22.7244 130.351 23.3802 130.561 23.8672V24H128.951ZM126.403 22.8296C126.884 22.8296 127.341 22.7051 127.772 22.4561C128.204 22.207 128.517 21.8833 128.71 21.4849V19.6421H127.507C125.625 19.6421 124.684 20.1927 124.684 21.2939C124.684 21.7754 124.845 22.1517 125.166 22.4229C125.487 22.694 125.899 22.8296 126.403 22.8296ZM134.322 24H132.786V11.25H134.322V24ZM138.455 24H136.92V11.25H138.455V24Z" fill="#8E8E8E"/>
<path d="M81.7471 71H67.7725V69.0518L75.1553 60.8486C76.249 59.6084 77.001 58.6025 77.4111 57.8311C77.8311 57.0498 78.041 56.2441 78.041 55.4141C78.041 54.3008 77.7041 53.3877 77.0303 52.6748C76.3564 51.9619 75.458 51.6055 74.335 51.6055C72.9873 51.6055 71.9375 51.9912 71.1855 52.7627C70.4434 53.5244 70.0723 54.5889 70.0723 55.9561H67.3623C67.3623 53.9932 67.9922 52.4062 69.252 51.1953C70.5215 49.9844 72.2158 49.3789 74.335 49.3789C76.3174 49.3789 77.8848 49.9014 79.0371 50.9463C80.1895 51.9814 80.7656 53.3633 80.7656 55.0918C80.7656 57.1914 79.4277 59.6914 76.752 62.5918L71.0391 68.7881H81.7471V71ZM96.0586 63.8369H99.0176V66.0488H96.0586V71H93.334V66.0488H83.6221V64.4521L93.1729 49.6719H96.0586V63.8369ZM86.6982 63.8369H93.334V53.3779L93.0117 53.9639L86.6982 63.8369ZM106.166 63.6611L104.467 65.4336V71H101.757V48.5H104.467V62.1084L105.917 60.3652L110.854 55.1504H114.149L107.982 61.7715L114.867 71H111.688L106.166 63.6611Z" fill="black"/>
<path d="M66 93L76 111H56L66 93Z" fill="#67CF26"/>
<path d="M84.9072 101.28H87.8809V102.562H84.9072V105.931H83.5449V102.562H80.5713V101.28H83.5449V98.167H84.9072V101.28ZM91.3672 101.009H92.3853C93.0249 100.999 93.5278 100.831 93.894 100.503C94.2603 100.176 94.4434 99.7344 94.4434 99.1777C94.4434 97.9277 93.8208 97.3027 92.5757 97.3027C91.9897 97.3027 91.521 97.4712 91.1694 97.8081C90.8228 98.1401 90.6494 98.582 90.6494 99.1338H89.2944C89.2944 98.2891 89.6021 97.5884 90.2173 97.0317C90.8374 96.4702 91.6235 96.1895 92.5757 96.1895C93.5815 96.1895 94.3701 96.4556 94.9414 96.9878C95.5127 97.52 95.7983 98.2598 95.7983 99.207C95.7983 99.6709 95.647 100.12 95.3442 100.555C95.0464 100.989 94.6387 101.314 94.1211 101.529C94.707 101.714 95.1587 102.022 95.4761 102.452C95.7983 102.881 95.9595 103.406 95.9595 104.026C95.9595 104.983 95.647 105.743 95.022 106.304C94.397 106.866 93.584 107.146 92.583 107.146C91.582 107.146 90.7666 106.875 90.1367 106.333C89.5117 105.792 89.1992 105.076 89.1992 104.188H90.5615C90.5615 104.749 90.7446 105.198 91.1108 105.535C91.4771 105.872 91.9678 106.041 92.583 106.041C93.2373 106.041 93.7378 105.87 94.0845 105.528C94.4312 105.186 94.6045 104.695 94.6045 104.056C94.6045 103.436 94.4141 102.959 94.0332 102.627C93.6523 102.295 93.103 102.125 92.3853 102.115H91.3672V101.009ZM97.9883 106.29C97.9883 106.055 98.0566 105.86 98.1934 105.704C98.335 105.547 98.5449 105.469 98.8232 105.469C99.1016 105.469 99.3115 105.547 99.4531 105.704C99.5996 105.86 99.6729 106.055 99.6729 106.29C99.6729 106.514 99.5996 106.702 99.4531 106.854C99.3115 107.005 99.1016 107.081 98.8232 107.081C98.5449 107.081 98.335 107.005 98.1934 106.854C98.0566 106.702 97.9883 106.514 97.9883 106.29ZM103.745 101.009H104.763C105.403 100.999 105.906 100.831 106.272 100.503C106.638 100.176 106.821 99.7344 106.821 99.1777C106.821 97.9277 106.199 97.3027 104.954 97.3027C104.368 97.3027 103.899 97.4712 103.547 97.8081C103.201 98.1401 103.027 98.582 103.027 99.1338H101.672C101.672 98.2891 101.98 97.5884 102.595 97.0317C103.215 96.4702 104.001 96.1895 104.954 96.1895C105.959 96.1895 106.748 96.4556 107.319 96.9878C107.891 97.52 108.176 98.2598 108.176 99.207C108.176 99.6709 108.025 100.12 107.722 100.555C107.424 100.989 107.017 101.314 106.499 101.529C107.085 101.714 107.537 102.022 107.854 102.452C108.176 102.881 108.337 103.406 108.337 104.026C108.337 104.983 108.025 105.743 107.4 106.304C106.775 106.866 105.962 107.146 104.961 107.146C103.96 107.146 103.145 106.875 102.515 106.333C101.89 105.792 101.577 105.076 101.577 104.188H102.939C102.939 104.749 103.123 105.198 103.489 105.535C103.855 105.872 104.346 106.041 104.961 106.041C105.615 106.041 106.116 105.87 106.462 105.528C106.809 105.186 106.982 104.695 106.982 104.056C106.982 103.436 106.792 102.959 106.411 102.627C106.03 102.295 105.481 102.125 104.763 102.115H103.745V101.009ZM110.081 98.3867C110.081 97.7471 110.283 97.2197 110.688 96.8047C111.099 96.3896 111.624 96.1821 112.263 96.1821C112.913 96.1821 113.438 96.3921 113.838 96.812C114.243 97.2271 114.446 97.7666 114.446 98.4307V98.9507C114.446 99.5952 114.241 100.123 113.831 100.533C113.425 100.938 112.908 101.141 112.278 101.141C111.643 101.141 111.118 100.938 110.703 100.533C110.288 100.123 110.081 99.5781 110.081 98.8994V98.3867ZM111.091 98.9507C111.091 99.3315 111.199 99.6465 111.414 99.8955C111.628 100.14 111.917 100.262 112.278 100.262C112.625 100.262 112.903 100.142 113.113 99.9028C113.328 99.6636 113.435 99.3364 113.435 98.9214V98.3867C113.435 98.0059 113.33 97.6909 113.12 97.4419C112.91 97.1929 112.625 97.0684 112.263 97.0684C111.902 97.0684 111.616 97.1929 111.406 97.4419C111.196 97.6909 111.091 98.0156 111.091 98.416V98.9507ZM115.273 104.385C115.273 103.746 115.476 103.221 115.881 102.811C116.292 102.396 116.816 102.188 117.456 102.188C118.096 102.188 118.621 102.393 119.031 102.803C119.441 103.213 119.646 103.758 119.646 104.437V104.957C119.646 105.596 119.441 106.124 119.031 106.539C118.625 106.949 118.105 107.154 117.471 107.154C116.836 107.154 116.311 106.951 115.896 106.546C115.481 106.136 115.273 105.591 115.273 104.913V104.385ZM116.284 104.957C116.284 105.342 116.392 105.66 116.606 105.909C116.821 106.153 117.109 106.275 117.471 106.275C117.822 106.275 118.103 106.155 118.313 105.916C118.523 105.672 118.628 105.342 118.628 104.927V104.385C118.628 104 118.521 103.685 118.306 103.44C118.096 103.196 117.812 103.074 117.456 103.074C117.109 103.074 116.826 103.196 116.606 103.44C116.392 103.68 116.284 104.004 116.284 104.415V104.957ZM112.585 106.194L111.816 105.711L117.024 97.376L117.793 97.8594L112.585 106.194Z" fill="#67CF26"/>
</svg>
