<svg width="578" height="279" viewBox="0 0 578 279" fill="none" xmlns="http://www.w3.org/2000/svg">
<g filter="url(#filter0_d)">
<rect x="4" width="570" height="271" rx="50" fill="url(#paint0_linear)"/>
<line x1="72.5238" y1="55" x2="72.5238" y2="190.5" stroke="white" stroke-width="4"/>
<line x1="144.905" y1="55" x2="144.905" y2="190.5" stroke="white" stroke-width="4"/>
<line x1="217.286" y1="55" x2="217.286" y2="190.5" stroke="white" stroke-width="4"/>
<line x1="289.667" y1="55" x2="289.667" y2="190.5" stroke="white" stroke-width="4"/>
<line x1="362.048" y1="55" x2="362.048" y2="190.5" stroke="white" stroke-width="4"/>
<line x1="434.428" y1="55" x2="434.428" y2="190.5" stroke="white" stroke-width="4"/>
<line x1="506.809" y1="55" x2="506.809" y2="190.5" stroke="white" stroke-width="4"/>
<ellipse cx="505.262" cy="150.273" rx="6.78571" ry="6.35156" fill="#FFFEFE"/>
<ellipse cx="216.643" cy="74.9017" rx="6.78571" ry="6.35156" fill="white"/>
<g filter="url(#filter1_d)">
<path d="M75.0476 126.138L143.81 172.716L217.095 74.4781L292.19 99.0375L362.762 118.516L433.333 94.8031L507.524 149.85" stroke="white" stroke-width="3"/>
</g>
<ellipse cx="432.881" cy="93.5328" rx="6.78571" ry="6.35156" fill="#FFFEFE"/>
<ellipse cx="360.5" cy="117.245" rx="6.78571" ry="6.35156" fill="#FFFEFE"/>
<ellipse cx="72.7857" cy="123.173" rx="6.78571" ry="6.35156" fill="white"/>
<ellipse cx="289.024" cy="99.4609" rx="6.78571" ry="6.35156" fill="#FFFDFD"/>
<ellipse cx="143.357" cy="172.292" rx="6.78571" ry="6.35156" fill="white"/>
<path d="M358.067 215.349H352.697V221H351.009V208.203H358.937V209.592H352.697V213.969H358.067V215.349ZM365.652 215.823H362.646V221H360.95V208.203H365.186C366.627 208.203 367.735 208.531 368.508 209.188C369.288 209.844 369.677 210.799 369.677 212.053C369.677 212.85 369.46 213.544 369.027 214.136C368.599 214.728 368.001 215.17 367.234 215.463L370.24 220.895V221H368.429L365.652 215.823ZM362.646 214.443H365.239C366.077 214.443 366.742 214.227 367.234 213.793C367.732 213.359 367.981 212.779 367.981 212.053C367.981 211.262 367.744 210.655 367.269 210.233C366.8 209.812 366.121 209.598 365.23 209.592H362.646V214.443Z" fill="white"/>
<path d="M63.665 208.203L67.8486 218.645L72.0322 208.203H74.2207V221H72.5332V216.017L72.6914 210.638L68.4902 221H67.1982L63.0059 210.664L63.1729 216.017V221H61.4854V208.203H63.665ZM87.0439 215.015C87.0439 216.269 86.833 217.364 86.4111 218.302C85.9893 219.233 85.3916 219.945 84.6182 220.438C83.8447 220.93 82.9424 221.176 81.9111 221.176C80.9033 221.176 80.0098 220.93 79.2305 220.438C78.4512 219.939 77.8447 219.233 77.4111 218.319C76.9834 217.399 76.7637 216.336 76.752 215.129V214.206C76.752 212.976 76.9658 211.889 77.3936 210.945C77.8213 210.002 78.4248 209.281 79.2041 208.783C79.9893 208.279 80.8857 208.027 81.8936 208.027C82.9189 208.027 83.8213 208.276 84.6006 208.774C85.3857 209.267 85.9893 209.984 86.4111 210.928C86.833 211.865 87.0439 212.958 87.0439 214.206V215.015ZM85.3652 214.188C85.3652 212.671 85.0605 211.508 84.4512 210.699C83.8418 209.885 82.9893 209.478 81.8936 209.478C80.8271 209.478 79.9863 209.885 79.3711 210.699C78.7617 211.508 78.4482 212.633 78.4307 214.074V215.015C78.4307 216.485 78.7383 217.643 79.3535 218.486C79.9746 219.324 80.8271 219.743 81.9111 219.743C83.001 219.743 83.8447 219.348 84.4424 218.557C85.04 217.76 85.3477 216.62 85.3652 215.138V214.188Z" fill="white"/>
<path d="M142.708 209.592H138.595V221H136.916V209.592H132.812V208.203H142.708V209.592ZM153.615 208.203V216.904C153.609 218.111 153.229 219.099 152.473 219.866C151.723 220.634 150.703 221.064 149.414 221.158L148.966 221.176C147.565 221.176 146.449 220.798 145.617 220.042C144.785 219.286 144.363 218.246 144.352 216.922V208.203H146.022V216.869C146.022 217.795 146.276 218.516 146.786 219.031C147.296 219.541 148.023 219.796 148.966 219.796C149.921 219.796 150.65 219.541 151.154 219.031C151.664 218.521 151.919 217.804 151.919 216.878V208.203H153.615Z" fill="white"/>
<path d="M209.007 216.966L209.253 218.653L209.613 217.133L212.145 208.203H213.568L216.038 217.133L216.39 218.68L216.662 216.957L218.649 208.203H220.345L217.242 221H215.704L213.068 211.675L212.865 210.699L212.663 211.675L209.93 221H208.392L205.298 208.203H206.985L209.007 216.966ZM229.459 215.085H223.913V219.62H230.356V221H222.226V208.203H230.268V209.592H223.913V213.705H229.459V215.085Z" fill="white"/>
<path d="M287.47 209.592H283.357V221H281.678V209.592H277.574V208.203H287.47V209.592ZM299.203 221H297.507V215.085H291.056V221H289.368V208.203H291.056V213.705H297.507V208.203H299.203V221Z" fill="white"/>
<path d="M499.542 215.296C498.094 214.88 497.04 214.37 496.378 213.767C495.721 213.157 495.393 212.407 495.393 211.517C495.393 210.509 495.794 209.677 496.597 209.021C497.406 208.358 498.455 208.027 499.744 208.027C500.623 208.027 501.405 208.197 502.09 208.537C502.782 208.877 503.315 209.346 503.69 209.943C504.071 210.541 504.261 211.194 504.261 211.903H502.565C502.565 211.13 502.319 210.523 501.827 210.084C501.335 209.639 500.64 209.416 499.744 209.416C498.912 209.416 498.261 209.601 497.793 209.97C497.33 210.333 497.098 210.84 497.098 211.49C497.098 212.012 497.318 212.454 497.757 212.817C498.203 213.175 498.956 213.503 500.016 213.802C501.083 214.101 501.915 214.432 502.512 214.795C503.116 215.152 503.561 215.571 503.848 216.052C504.141 216.532 504.288 217.098 504.288 217.748C504.288 218.785 503.883 219.617 503.075 220.244C502.266 220.865 501.185 221.176 499.832 221.176C498.953 221.176 498.132 221.009 497.371 220.675C496.609 220.335 496.02 219.872 495.604 219.286C495.194 218.7 494.989 218.035 494.989 217.291H496.685C496.685 218.064 496.969 218.677 497.538 219.128C498.112 219.573 498.877 219.796 499.832 219.796C500.722 219.796 501.405 219.614 501.879 219.251C502.354 218.888 502.591 218.393 502.591 217.766C502.591 217.139 502.372 216.655 501.932 216.315C501.493 215.97 500.696 215.63 499.542 215.296ZM515.467 208.203V216.904C515.461 218.111 515.081 219.099 514.325 219.866C513.575 220.634 512.555 221.064 511.266 221.158L510.818 221.176C509.418 221.176 508.301 220.798 507.469 220.042C506.637 219.286 506.215 218.246 506.204 216.922V208.203H507.874V216.869C507.874 217.795 508.128 218.516 508.638 219.031C509.148 219.541 509.875 219.796 510.818 219.796C511.773 219.796 512.503 219.541 513.006 219.031C513.516 218.521 513.771 217.804 513.771 216.878V208.203H515.467Z" fill="white"/>
<path d="M427.161 215.296C425.713 214.88 424.659 214.37 423.997 213.767C423.34 213.157 423.012 212.407 423.012 211.517C423.012 210.509 423.414 209.677 424.216 209.021C425.025 208.358 426.074 208.027 427.363 208.027C428.242 208.027 429.024 208.197 429.709 208.537C430.401 208.877 430.934 209.346 431.309 209.943C431.69 210.541 431.88 211.194 431.88 211.903H430.184C430.184 211.13 429.938 210.523 429.446 210.084C428.954 209.639 428.259 209.416 427.363 209.416C426.531 209.416 425.88 209.601 425.412 209.97C424.949 210.333 424.717 210.84 424.717 211.49C424.717 212.012 424.937 212.454 425.376 212.817C425.822 213.175 426.575 213.503 427.635 213.802C428.702 214.101 429.534 214.432 430.131 214.795C430.735 215.152 431.18 215.571 431.467 216.052C431.76 216.532 431.907 217.098 431.907 217.748C431.907 218.785 431.502 219.617 430.694 220.244C429.885 220.865 428.804 221.176 427.451 221.176C426.572 221.176 425.751 221.009 424.99 220.675C424.228 220.335 423.639 219.872 423.223 219.286C422.813 218.7 422.608 218.035 422.608 217.291H424.304C424.304 218.064 424.588 218.677 425.157 219.128C425.731 219.573 426.496 219.796 427.451 219.796C428.341 219.796 429.024 219.614 429.499 219.251C429.973 218.888 430.21 218.393 430.21 217.766C430.21 217.139 429.991 216.655 429.551 216.315C429.112 215.97 428.315 215.63 427.161 215.296ZM441.144 217.66H435.783L434.579 221H432.838L437.725 208.203H439.202L444.097 221H442.366L441.144 217.66ZM436.292 216.271H440.643L438.463 210.286L436.292 216.271Z" fill="white"/>
<rect x="178" y="238" width="64.2381" height="27.1" rx="13.55" fill="#5D5FEF"/>
<path d="M190.342 257.541V244.744H193.955C195.068 244.744 196.052 244.99 196.908 245.482C197.763 245.974 198.423 246.674 198.885 247.583C199.354 248.491 199.592 249.534 199.597 250.712V251.529C199.597 252.736 199.363 253.794 198.894 254.702C198.431 255.61 197.766 256.307 196.899 256.794C196.038 257.28 195.033 257.529 193.884 257.541H190.342ZM192.03 246.132V256.161H193.805C195.106 256.161 196.117 255.756 196.838 254.948C197.564 254.139 197.927 252.988 197.927 251.494V250.747C197.927 249.294 197.585 248.166 196.899 247.363C196.219 246.554 195.253 246.144 193.999 246.132H192.03ZM207.771 257.541C207.677 257.353 207.601 257.019 207.543 256.539C206.787 257.324 205.884 257.716 204.836 257.716C203.898 257.716 203.128 257.453 202.524 256.925C201.926 256.392 201.628 255.718 201.628 254.904C201.628 253.914 202.003 253.146 202.753 252.601C203.509 252.05 204.569 251.775 205.934 251.775H207.516V251.028C207.516 250.46 207.346 250.008 207.007 249.674C206.667 249.335 206.166 249.165 205.504 249.165C204.924 249.165 204.437 249.311 204.045 249.604C203.652 249.897 203.456 250.252 203.456 250.668H201.821C201.821 250.193 201.988 249.736 202.322 249.297C202.662 248.851 203.119 248.5 203.693 248.242C204.273 247.984 204.909 247.855 205.6 247.855C206.696 247.855 207.554 248.13 208.176 248.681C208.797 249.226 209.119 249.979 209.142 250.94V255.317C209.142 256.19 209.254 256.884 209.476 257.4V257.541H207.771ZM205.073 256.301C205.583 256.301 206.066 256.17 206.523 255.906C206.98 255.642 207.311 255.299 207.516 254.878V252.926H206.242C204.25 252.926 203.254 253.509 203.254 254.675C203.254 255.185 203.424 255.584 203.763 255.871C204.103 256.158 204.54 256.301 205.073 256.301ZM213.458 257.541H211.832V248.031H213.458V257.541ZM211.7 245.508C211.7 245.245 211.779 245.022 211.937 244.84C212.101 244.659 212.342 244.568 212.658 244.568C212.974 244.568 213.215 244.659 213.379 244.84C213.543 245.022 213.625 245.245 213.625 245.508C213.625 245.772 213.543 245.992 213.379 246.168C213.215 246.343 212.974 246.431 212.658 246.431C212.342 246.431 212.101 246.343 211.937 246.168C211.779 245.992 211.7 245.772 211.7 245.508ZM217.835 257.541H216.209V244.041H217.835V257.541ZM223.556 255.159L225.771 248.031H227.511L223.688 259.008C223.096 260.59 222.156 261.381 220.867 261.381L220.559 261.355L219.953 261.241V259.922L220.392 259.958C220.943 259.958 221.371 259.846 221.676 259.624C221.986 259.401 222.241 258.994 222.44 258.402L222.801 257.435L219.408 248.031H221.183L223.556 255.159Z" fill="white"/>
<rect x="259" y="238" width="64.2381" height="27.1" rx="13.55" fill="#5D5FEF"/>
<path d="M270.744 253.036L270.99 254.723L271.35 253.203L273.882 244.273H275.306L277.775 253.203L278.127 254.75L278.399 253.027L280.386 244.273H282.082L278.979 257.07H277.441L274.805 247.745L274.602 246.769L274.4 247.745L271.667 257.07H270.129L267.035 244.273H268.723L270.744 253.036ZM287.373 257.246C286.084 257.246 285.035 256.824 284.226 255.98C283.418 255.13 283.014 253.997 283.014 252.579V252.28C283.014 251.336 283.192 250.496 283.55 249.757C283.913 249.013 284.417 248.433 285.061 248.017C285.712 247.595 286.415 247.384 287.171 247.384C288.407 247.384 289.368 247.792 290.054 248.606C290.739 249.42 291.082 250.586 291.082 252.104V252.781H284.64C284.663 253.718 284.935 254.477 285.457 255.057C285.984 255.631 286.652 255.918 287.461 255.918C288.035 255.918 288.521 255.801 288.92 255.567C289.318 255.333 289.667 255.022 289.966 254.635L290.959 255.409C290.162 256.633 288.967 257.246 287.373 257.246ZM287.171 248.72C286.515 248.72 285.964 248.96 285.518 249.441C285.073 249.916 284.798 250.583 284.692 251.445H289.456V251.322C289.409 250.496 289.186 249.857 288.788 249.406C288.39 248.949 287.85 248.72 287.171 248.72ZM296.918 257.246C295.629 257.246 294.58 256.824 293.771 255.98C292.963 255.13 292.559 253.997 292.559 252.579V252.28C292.559 251.336 292.737 250.496 293.095 249.757C293.458 249.013 293.962 248.433 294.606 248.017C295.257 247.595 295.96 247.384 296.716 247.384C297.952 247.384 298.913 247.792 299.599 248.606C300.284 249.42 300.627 250.586 300.627 252.104V252.781H294.184C294.208 253.718 294.48 254.477 295.002 255.057C295.529 255.631 296.197 255.918 297.006 255.918C297.58 255.918 298.066 255.801 298.465 255.567C298.863 255.333 299.212 255.022 299.511 254.635L300.504 255.409C299.707 256.633 298.512 257.246 296.918 257.246ZM296.716 248.72C296.059 248.72 295.509 248.96 295.063 249.441C294.618 249.916 294.343 250.583 294.237 251.445H299.001V251.322C298.954 250.496 298.731 249.857 298.333 249.406C297.934 248.949 297.395 248.72 296.716 248.72ZM305.171 252.667L304.151 253.73V257.07H302.525V243.57H304.151V251.735L305.021 250.689L307.983 247.56H309.961L306.261 251.533L310.392 257.07H308.484L305.171 252.667Z" fill="white"/>
<rect x="340" y="238" width="64.2381" height="27.1" rx="13.55" fill="#5D5FEF"/>
<path d="M347.319 245.12L351.502 255.561L355.686 245.12H357.874V257.917H356.187V252.933L356.345 247.554L352.144 257.917H350.852L346.66 247.581L346.827 252.933V257.917H345.139V245.12H347.319ZM360.168 253.074C360.168 252.142 360.35 251.304 360.713 250.56C361.082 249.816 361.592 249.242 362.243 248.838C362.899 248.433 363.646 248.231 364.484 248.231C365.779 248.231 366.825 248.679 367.622 249.576C368.424 250.472 368.826 251.665 368.826 253.153V253.267C368.826 254.193 368.647 255.025 368.289 255.763C367.938 256.496 367.431 257.067 366.769 257.477C366.113 257.887 365.357 258.092 364.501 258.092C363.212 258.092 362.166 257.644 361.364 256.748C360.567 255.851 360.168 254.665 360.168 253.188V253.074ZM361.803 253.267C361.803 254.322 362.046 255.169 362.533 255.807C363.025 256.446 363.681 256.765 364.501 256.765C365.328 256.765 365.984 256.443 366.47 255.798C366.956 255.148 367.2 254.24 367.2 253.074C367.2 252.031 366.951 251.187 366.453 250.543C365.96 249.892 365.304 249.567 364.484 249.567C363.681 249.567 363.034 249.886 362.541 250.525C362.049 251.164 361.803 252.078 361.803 253.267ZM372.403 248.407L372.456 249.602C373.182 248.688 374.131 248.231 375.303 248.231C377.313 248.231 378.327 249.365 378.344 251.632V257.917H376.718V251.624C376.712 250.938 376.554 250.431 376.244 250.103C375.939 249.775 375.461 249.611 374.811 249.611C374.284 249.611 373.821 249.752 373.422 250.033C373.024 250.314 372.713 250.683 372.491 251.14V257.917H370.865V248.407H372.403ZM383.002 246.104V248.407H384.778V249.664H383.002V255.561C383.002 255.942 383.081 256.229 383.24 256.422C383.398 256.61 383.667 256.704 384.048 256.704C384.236 256.704 384.494 256.669 384.822 256.598V257.917C384.394 258.034 383.978 258.092 383.574 258.092C382.847 258.092 382.299 257.873 381.93 257.433C381.561 256.994 381.376 256.37 381.376 255.561V249.664H379.645V248.407H381.376V246.104H383.002ZM388.311 249.558C389.032 248.673 389.969 248.231 391.123 248.231C393.133 248.231 394.147 249.365 394.164 251.632V257.917H392.539V251.624C392.533 250.938 392.374 250.431 392.064 250.103C391.759 249.775 391.282 249.611 390.631 249.611C390.104 249.611 389.641 249.752 389.243 250.033C388.844 250.314 388.534 250.683 388.311 251.14V257.917H386.685V244.417H388.311V249.558Z" fill="white"/>
<path d="M259.945 30C259.765 30 259.645 29.93 259.585 29.79L255.175 20.49C255.155 20.43 255.115 20.4 255.055 20.4H249.955C249.875 20.4 249.835 20.44 249.835 20.52V29.7C249.835 29.9 249.735 30 249.535 30H248.005C247.805 30 247.705 29.9 247.705 29.7V9.3C247.705 9.1 247.805 9 248.005 9H255.775C257.495 9 258.885 9.54 259.945 10.62C261.005 11.68 261.535 13.07 261.535 14.79C261.535 16.19 261.155 17.38 260.395 18.36C259.635 19.34 258.605 19.97 257.305 20.25C257.225 20.29 257.205 20.34 257.245 20.4L261.745 29.64C261.765 29.68 261.775 29.73 261.775 29.79C261.775 29.93 261.695 30 261.535 30H259.945ZM249.955 10.86C249.875 10.86 249.835 10.9 249.835 10.98V18.57C249.835 18.65 249.875 18.69 249.955 18.69H255.535C256.695 18.69 257.635 18.33 258.355 17.61C259.075 16.89 259.435 15.95 259.435 14.79C259.435 13.63 259.075 12.69 258.355 11.97C257.635 11.23 256.695 10.86 255.535 10.86H249.955ZM277.206 19.86C277.286 20.42 277.326 21.12 277.326 21.96V22.92C277.326 23.12 277.226 23.22 277.026 23.22H267.336C267.256 23.22 267.216 23.26 267.216 23.34C267.256 24.44 267.316 25.15 267.396 25.47C267.616 26.37 268.086 27.08 268.806 27.6C269.526 28.12 270.446 28.38 271.566 28.38C272.406 28.38 273.146 28.19 273.786 27.81C274.426 27.43 274.926 26.89 275.286 26.19C275.406 26.01 275.546 25.97 275.706 26.07L276.876 26.76C277.036 26.86 277.076 27 276.996 27.18C276.496 28.14 275.746 28.9 274.746 29.46C273.746 30 272.596 30.27 271.296 30.27C269.876 30.25 268.686 29.91 267.726 29.25C266.766 28.59 266.076 27.67 265.656 26.49C265.296 25.53 265.116 24.15 265.116 22.35C265.116 21.51 265.126 20.83 265.146 20.31C265.186 19.77 265.266 19.29 265.386 18.87C265.726 17.57 266.406 16.53 267.426 15.75C268.466 14.97 269.716 14.58 271.176 14.58C272.996 14.58 274.396 15.04 275.376 15.96C276.356 16.88 276.966 18.18 277.206 19.86ZM271.176 16.44C270.196 16.44 269.376 16.7 268.716 17.22C268.076 17.72 267.656 18.4 267.456 19.26C267.336 19.68 267.256 20.36 267.216 21.3C267.216 21.38 267.256 21.42 267.336 21.42H275.106C275.186 21.42 275.226 21.38 275.226 21.3C275.186 20.4 275.126 19.76 275.046 19.38C274.826 18.48 274.376 17.77 273.696 17.25C273.036 16.71 272.196 16.44 271.176 16.44ZM286.666 14.58C288.466 14.58 289.856 15.04 290.836 15.96C291.816 16.88 292.306 18.1 292.306 19.62V29.7C292.306 29.9 292.206 30 292.006 30H290.476C290.276 30 290.176 29.9 290.176 29.7V28.47C290.176 28.43 290.156 28.4 290.116 28.38C290.096 28.36 290.066 28.37 290.026 28.41C289.526 29.01 288.876 29.47 288.076 29.79C287.276 30.09 286.386 30.24 285.406 30.24C283.986 30.24 282.796 29.88 281.836 29.16C280.876 28.44 280.396 27.34 280.396 25.86C280.396 24.36 280.936 23.18 282.016 22.32C283.116 21.44 284.636 21 286.576 21H290.056C290.136 21 290.176 20.96 290.176 20.88V19.74C290.176 18.72 289.886 17.92 289.306 17.34C288.746 16.74 287.866 16.44 286.666 16.44C285.706 16.44 284.926 16.63 284.326 17.01C283.726 17.37 283.356 17.88 283.216 18.54C283.156 18.74 283.036 18.83 282.856 18.81L281.236 18.6C281.016 18.56 280.926 18.48 280.966 18.36C281.126 17.24 281.726 16.33 282.766 15.63C283.806 14.93 285.106 14.58 286.666 14.58ZM285.826 28.41C287.006 28.41 288.026 28.12 288.886 27.54C289.746 26.94 290.176 26.14 290.176 25.14V22.8C290.176 22.72 290.136 22.68 290.056 22.68H286.906C285.586 22.68 284.526 22.95 283.726 23.49C282.926 24.03 282.526 24.78 282.526 25.74C282.526 26.62 282.826 27.29 283.426 27.75C284.046 28.19 284.846 28.41 285.826 28.41ZM302.468 30.24C301.028 30.24 299.788 29.87 298.748 29.13C297.728 28.37 297.028 27.35 296.648 26.07C296.388 25.19 296.258 23.95 296.258 22.35C296.258 20.91 296.388 19.69 296.648 18.69C297.008 17.45 297.708 16.46 298.748 15.72C299.788 14.96 301.028 14.58 302.468 14.58C303.928 14.58 305.188 14.95 306.248 15.69C307.328 16.43 308.028 17.35 308.348 18.45C308.448 18.81 308.508 19.11 308.528 19.35V19.41C308.528 19.55 308.438 19.64 308.258 19.68L306.758 19.89H306.698C306.558 19.89 306.468 19.8 306.428 19.62L306.338 19.17C306.158 18.41 305.718 17.77 305.018 17.25C304.318 16.71 303.468 16.44 302.468 16.44C301.468 16.44 300.628 16.71 299.948 17.25C299.288 17.77 298.858 18.47 298.658 19.35C298.478 20.11 298.388 21.12 298.388 22.38C298.388 23.7 298.478 24.72 298.658 25.44C298.858 26.34 299.288 27.06 299.948 27.6C300.628 28.12 301.468 28.38 302.468 28.38C303.448 28.38 304.288 28.13 304.988 27.63C305.708 27.11 306.158 26.45 306.338 25.65V25.53L306.368 25.41C306.388 25.21 306.508 25.13 306.728 25.17L308.198 25.41C308.398 25.45 308.488 25.56 308.468 25.74L308.348 26.34C308.048 27.5 307.358 28.44 306.278 29.16C305.198 29.88 303.928 30.24 302.468 30.24ZM318.624 14.61C320.224 14.61 321.494 15.08 322.434 16.02C323.394 16.96 323.874 18.22 323.874 19.8V29.7C323.874 29.9 323.774 30 323.574 30H322.044C321.844 30 321.744 29.9 321.744 29.7V20.22C321.744 19.12 321.404 18.22 320.724 17.52C320.064 16.82 319.204 16.47 318.144 16.47C317.044 16.47 316.154 16.81 315.474 17.49C314.794 18.17 314.454 19.06 314.454 20.16V29.7C314.454 29.9 314.354 30 314.154 30H312.624C312.424 30 312.324 29.9 312.324 29.7V9.3C312.324 9.1 312.424 9 312.624 9H314.154C314.354 9 314.454 9.1 314.454 9.3V16.41C314.454 16.45 314.464 16.48 314.484 16.5C314.524 16.52 314.554 16.51 314.574 16.47C315.454 15.23 316.804 14.61 318.624 14.61Z" fill="#FFFBFB"/>
</g>
<defs>
<filter id="filter0_d" x="0" y="0" width="578" height="279" filterUnits="userSpaceOnUse" color-interpolation-filters="sRGB">
<feFlood flood-opacity="0" result="BackgroundImageFix"/>
<feColorMatrix in="SourceAlpha" type="matrix" values="0 0 0 0 0 0 0 0 0 0 0 0 0 0 0 0 0 0 127 0"/>
<feOffset dy="4"/>
<feGaussianBlur stdDeviation="2"/>
<feColorMatrix type="matrix" values="0 0 0 0 0.647059 0 0 0 0 0.65098 0 0 0 0 0.964706 0 0 0 0.91 0"/>
<feBlend mode="normal" in2="BackgroundImageFix" result="effect1_dropShadow"/>
<feBlend mode="normal" in="SourceGraphic" in2="effect1_dropShadow" result="shape"/>
</filter>
<filter id="filter1_d" x="69.2064" y="71.7175" width="444.211" height="112.044" filterUnits="userSpaceOnUse" color-interpolation-filters="sRGB">
<feFlood flood-opacity="0" result="BackgroundImageFix"/>
<feColorMatrix in="SourceAlpha" type="matrix" values="0 0 0 0 0 0 0 0 0 0 0 0 0 0 0 0 0 0 127 0"/>
<feOffset dy="4"/>
<feGaussianBlur stdDeviation="2.5"/>
<feColorMatrix type="matrix" values="0 0 0 0 0.0470313 0 0 0 0 0.302075 0 0 0 0 0.5375 0 0 0 0.64 0"/>
<feBlend mode="normal" in2="BackgroundImageFix" result="effect1_dropShadow"/>
<feBlend mode="normal" in="SourceGraphic" in2="effect1_dropShadow" result="shape"/>
</filter>
<linearGradient id="paint0_linear" x1="289" y1="0" x2="289" y2="271" gradientUnits="userSpaceOnUse">
<stop offset="0.0001" stop-color="#A5A6F6"/>
<stop offset="0.701456" stop-color="#7879F1"/>
</linearGradient>
</defs>
</svg>
