<svg width="240" height="47" viewBox="0 0 240 47" fill="none" xmlns="http://www.w3.org/2000/svg">
<rect width="240" height="47" rx="23.5" fill="url(#paint0_linear)" fill-opacity="0.91"/>
<path d="M23.1001 27.3613H15.6538L13.9814 32H11.5645L18.3516 14.2266H20.4023L27.2017 32H24.7969L23.1001 27.3613ZM16.3618 25.4326H22.4043L19.377 17.1196L16.3618 25.4326ZM34.5381 30.4009C35.3438 30.4009 36.0477 30.1567 36.6499 29.6685C37.2521 29.1802 37.5858 28.5698 37.6509 27.8374H39.7871C39.7464 28.5942 39.486 29.3145 39.0059 29.998C38.5257 30.6816 37.8828 31.2269 37.0771 31.6338C36.2796 32.0407 35.4333 32.2441 34.5381 32.2441C32.7396 32.2441 31.3073 31.646 30.2412 30.4497C29.1833 29.2453 28.6543 27.6014 28.6543 25.5181V25.1396C28.6543 23.8538 28.8903 22.7104 29.3623 21.7095C29.8343 20.7085 30.5098 19.9313 31.3887 19.3779C32.2757 18.8245 33.3215 18.5479 34.5259 18.5479C36.007 18.5479 37.2358 18.9914 38.2124 19.8784C39.1971 20.7655 39.722 21.917 39.7871 23.333H37.6509C37.5858 22.4785 37.2603 21.7786 36.6743 21.2334C36.0965 20.68 35.3804 20.4033 34.5259 20.4033C33.3784 20.4033 32.4873 20.8184 31.8525 21.6484C31.2259 22.4704 30.9126 23.6626 30.9126 25.2251V25.6523C30.9126 27.1742 31.2259 28.346 31.8525 29.168C32.4792 29.9899 33.3743 30.4009 34.5381 30.4009ZM45.3901 15.5938V18.792H47.856V20.5376H45.3901V28.7285C45.3901 29.2575 45.5 29.6562 45.7197 29.9248C45.9395 30.1852 46.3138 30.3154 46.8428 30.3154C47.1032 30.3154 47.4613 30.2666 47.917 30.1689V32C47.3229 32.1628 46.7451 32.2441 46.1836 32.2441C45.1745 32.2441 44.4136 31.939 43.9009 31.3286C43.3882 30.7183 43.1318 29.8516 43.1318 28.7285V20.5376H40.7271V18.792H43.1318V15.5938H45.3901ZM52.9585 32H50.7002V18.792H52.9585V32ZM50.5171 15.2886C50.5171 14.9224 50.627 14.6131 50.8467 14.3608C51.0745 14.1086 51.4082 13.9824 51.8477 13.9824C52.2871 13.9824 52.6208 14.1086 52.8486 14.3608C53.0765 14.6131 53.1904 14.9224 53.1904 15.2886C53.1904 15.6548 53.0765 15.96 52.8486 16.2041C52.6208 16.4482 52.2871 16.5703 51.8477 16.5703C51.4082 16.5703 51.0745 16.4482 50.8467 16.2041C50.627 15.96 50.5171 15.6548 50.5171 15.2886ZM60.9419 28.936L64.2134 18.792H66.5205L61.7842 32H60.063L55.2778 18.792H57.585L60.9419 28.936ZM74.0034 32.2441C72.2131 32.2441 70.7563 31.6582 69.6333 30.4863C68.5103 29.3063 67.9487 27.7316 67.9487 25.7622V25.3472C67.9487 24.0369 68.1969 22.8691 68.6934 21.8438C69.1979 20.8102 69.8978 20.0046 70.793 19.4268C71.6963 18.8408 72.6729 18.5479 73.7227 18.5479C75.4398 18.5479 76.7744 19.1134 77.7266 20.2446C78.6787 21.3758 79.1548 22.9953 79.1548 25.103V26.043H70.207C70.2396 27.3451 70.618 28.3989 71.3423 29.2046C72.0747 30.0021 73.0024 30.4009 74.1255 30.4009C74.923 30.4009 75.5985 30.2381 76.1519 29.9126C76.7052 29.5871 77.1895 29.1558 77.6045 28.6187L78.9839 29.6929C77.8771 31.3937 76.217 32.2441 74.0034 32.2441ZM73.7227 20.4033C72.8112 20.4033 72.0462 20.737 71.4277 21.4043C70.8092 22.0635 70.4268 22.9912 70.2803 24.1875H76.8965V24.0166C76.8314 22.8691 76.5221 21.9821 75.9688 21.3555C75.4154 20.7207 74.6667 20.4033 73.7227 20.4033ZM96.1348 32C96.0046 31.7396 95.8988 31.2757 95.8174 30.6084C94.7676 31.6989 93.5143 32.2441 92.0576 32.2441C90.7555 32.2441 89.6854 31.8779 88.8472 31.1455C88.0171 30.4049 87.6021 29.4691 87.6021 28.3379C87.6021 26.9626 88.1229 25.8965 89.1646 25.1396C90.2144 24.3747 91.6873 23.9922 93.5835 23.9922H95.7808V22.9546C95.7808 22.1652 95.5448 21.5386 95.0728 21.0747C94.6007 20.6027 93.9049 20.3667 92.9854 20.3667C92.1797 20.3667 91.5042 20.5701 90.959 20.9771C90.4137 21.384 90.1411 21.8763 90.1411 22.4541H87.8706C87.8706 21.7949 88.1025 21.1602 88.5664 20.5498C89.0384 19.9313 89.6732 19.443 90.4707 19.085C91.2764 18.7269 92.1593 18.5479 93.1196 18.5479C94.6414 18.5479 95.8337 18.9303 96.6963 19.6953C97.5589 20.4521 98.0065 21.4979 98.0391 22.8325V28.9116C98.0391 30.1242 98.1937 31.0885 98.5029 31.8047V32H96.1348ZM92.3872 30.2788C93.0952 30.2788 93.7666 30.0957 94.4014 29.7295C95.0361 29.3633 95.4959 28.8872 95.7808 28.3013V25.5913H94.0107C91.2438 25.5913 89.8604 26.401 89.8604 28.0205C89.8604 28.7285 90.0964 29.2819 90.5684 29.6807C91.0404 30.0794 91.6466 30.2788 92.3872 30.2788ZM101.03 25.2861C101.03 23.2598 101.51 21.6322 102.47 20.4033C103.431 19.1663 104.688 18.5479 106.242 18.5479C107.788 18.5479 109.013 19.0768 109.917 20.1348V13.25H112.175V32H110.1L109.99 30.584C109.086 31.6908 107.829 32.2441 106.218 32.2441C104.688 32.2441 103.439 31.6175 102.47 30.3643C101.51 29.111 101.03 27.4753 101.03 25.457V25.2861ZM103.288 25.5425C103.288 27.0399 103.597 28.2118 104.216 29.0581C104.834 29.9045 105.689 30.3276 106.779 30.3276C108.212 30.3276 109.257 29.6847 109.917 28.3989V22.332C109.241 21.0869 108.203 20.4644 106.804 20.4644C105.697 20.4644 104.834 20.8916 104.216 21.7461C103.597 22.6006 103.288 23.866 103.288 25.5425ZM123.381 28.4966C123.381 27.8862 123.149 27.4142 122.685 27.0806C122.229 26.7388 121.428 26.4458 120.28 26.2017C119.141 25.9575 118.234 25.6646 117.558 25.3228C116.891 24.981 116.394 24.5741 116.069 24.1021C115.751 23.63 115.593 23.0685 115.593 22.4175C115.593 21.3351 116.049 20.4196 116.96 19.6709C117.88 18.9222 119.051 18.5479 120.476 18.5479C121.973 18.5479 123.186 18.9344 124.113 19.7075C125.049 20.4806 125.517 21.4694 125.517 22.6738H123.247C123.247 22.0553 122.982 21.5223 122.453 21.0747C121.932 20.6271 121.273 20.4033 120.476 20.4033C119.654 20.4033 119.011 20.5824 118.547 20.9404C118.083 21.2985 117.851 21.7664 117.851 22.3442C117.851 22.8895 118.067 23.3005 118.498 23.5771C118.929 23.8538 119.707 24.1183 120.83 24.3706C121.961 24.6229 122.876 24.924 123.576 25.2739C124.276 25.6239 124.793 26.047 125.126 26.5435C125.468 27.0317 125.639 27.6299 125.639 28.3379C125.639 29.5179 125.167 30.466 124.223 31.1821C123.279 31.8901 122.054 32.2441 120.549 32.2441C119.491 32.2441 118.555 32.057 117.741 31.6826C116.927 31.3083 116.289 30.7874 115.825 30.1201C115.369 29.4447 115.141 28.7163 115.141 27.9351H117.399C117.44 28.6919 117.741 29.2941 118.303 29.7417C118.872 30.1812 119.621 30.4009 120.549 30.4009C121.403 30.4009 122.087 30.23 122.6 29.8882C123.12 29.5382 123.381 29.0744 123.381 28.4966ZM137.492 30.0835H145.915V32H135.136V14.2266H137.492V30.0835ZM147.636 25.2739C147.636 23.98 147.889 22.8162 148.393 21.7827C148.906 20.7492 149.614 19.9517 150.517 19.3901C151.429 18.8286 152.466 18.5479 153.63 18.5479C155.428 18.5479 156.881 19.1704 157.988 20.4155C159.103 21.6606 159.66 23.3167 159.66 25.3838V25.5425C159.66 26.8283 159.412 27.9839 158.916 29.0093C158.427 30.0265 157.723 30.82 156.804 31.3896C155.892 31.9593 154.842 32.2441 153.654 32.2441C151.864 32.2441 150.411 31.6216 149.296 30.3765C148.19 29.1313 147.636 27.4834 147.636 25.4326V25.2739ZM149.907 25.5425C149.907 27.0073 150.244 28.1833 150.92 29.0703C151.604 29.9574 152.515 30.4009 153.654 30.4009C154.802 30.4009 155.713 29.9533 156.389 29.0581C157.064 28.1548 157.402 26.8934 157.402 25.2739C157.402 23.8254 157.056 22.6535 156.364 21.7583C155.681 20.855 154.769 20.4033 153.63 20.4033C152.515 20.4033 151.616 20.8468 150.932 21.7339C150.249 22.6209 149.907 23.8905 149.907 25.5425ZM170.646 32C170.516 31.7396 170.41 31.2757 170.329 30.6084C169.279 31.6989 168.026 32.2441 166.569 32.2441C165.267 32.2441 164.197 31.8779 163.359 31.1455C162.529 30.4049 162.114 29.4691 162.114 28.3379C162.114 26.9626 162.635 25.8965 163.676 25.1396C164.726 24.3747 166.199 23.9922 168.095 23.9922H170.292V22.9546C170.292 22.1652 170.056 21.5386 169.584 21.0747C169.112 20.6027 168.417 20.3667 167.497 20.3667C166.691 20.3667 166.016 20.5701 165.471 20.9771C164.925 21.384 164.653 21.8763 164.653 22.4541H162.382C162.382 21.7949 162.614 21.1602 163.078 20.5498C163.55 19.9313 164.185 19.443 164.982 19.085C165.788 18.7269 166.671 18.5479 167.631 18.5479C169.153 18.5479 170.345 18.9303 171.208 19.6953C172.071 20.4521 172.518 21.4979 172.551 22.8325V28.9116C172.551 30.1242 172.705 31.0885 173.015 31.8047V32H170.646ZM166.899 30.2788C167.607 30.2788 168.278 30.0957 168.913 29.7295C169.548 29.3633 170.008 28.8872 170.292 28.3013V25.5913H168.522C165.756 25.5913 164.372 26.401 164.372 28.0205C164.372 28.7285 164.608 29.2819 165.08 29.6807C165.552 30.0794 166.158 30.2788 166.899 30.2788ZM181.389 30.4009C182.194 30.4009 182.898 30.1567 183.5 29.6685C184.103 29.1802 184.436 28.5698 184.501 27.8374H186.638C186.597 28.5942 186.337 29.3145 185.856 29.998C185.376 30.6816 184.733 31.2269 183.928 31.6338C183.13 32.0407 182.284 32.2441 181.389 32.2441C179.59 32.2441 178.158 31.646 177.092 30.4497C176.034 29.2453 175.505 27.6014 175.505 25.5181V25.1396C175.505 23.8538 175.741 22.7104 176.213 21.7095C176.685 20.7085 177.36 19.9313 178.239 19.3779C179.126 18.8245 180.172 18.5479 181.376 18.5479C182.858 18.5479 184.086 18.9914 185.063 19.8784C186.048 20.7655 186.573 21.917 186.638 23.333H184.501C184.436 22.4785 184.111 21.7786 183.525 21.2334C182.947 20.68 182.231 20.4033 181.376 20.4033C180.229 20.4033 179.338 20.8184 178.703 21.6484C178.076 22.4704 177.763 23.6626 177.763 25.2251V25.6523C177.763 27.1742 178.076 28.346 178.703 29.168C179.33 29.9899 180.225 30.4009 181.389 30.4009ZM192.241 15.5938V18.792H194.707V20.5376H192.241V28.7285C192.241 29.2575 192.351 29.6562 192.57 29.9248C192.79 30.1852 193.164 30.3154 193.693 30.3154C193.954 30.3154 194.312 30.2666 194.768 30.1689V32C194.174 32.1628 193.596 32.2441 193.034 32.2441C192.025 32.2441 191.264 31.939 190.751 31.3286C190.239 30.7183 189.982 29.8516 189.982 28.7285V20.5376H187.578V18.792H189.982V15.5938H192.241ZM199.809 32H197.551V18.792H199.809V32ZM197.368 15.2886C197.368 14.9224 197.478 14.6131 197.697 14.3608C197.925 14.1086 198.259 13.9824 198.698 13.9824C199.138 13.9824 199.471 14.1086 199.699 14.3608C199.927 14.6131 200.041 14.9224 200.041 15.2886C200.041 15.6548 199.927 15.96 199.699 16.2041C199.471 16.4482 199.138 16.5703 198.698 16.5703C198.259 16.5703 197.925 16.4482 197.697 16.2041C197.478 15.96 197.368 15.6548 197.368 15.2886ZM202.836 25.2739C202.836 23.98 203.089 22.8162 203.593 21.7827C204.106 20.7492 204.814 19.9517 205.717 19.3901C206.629 18.8286 207.666 18.5479 208.83 18.5479C210.629 18.5479 212.081 19.1704 213.188 20.4155C214.303 21.6606 214.86 23.3167 214.86 25.3838V25.5425C214.86 26.8283 214.612 27.9839 214.116 29.0093C213.627 30.0265 212.924 30.82 212.004 31.3896C211.092 31.9593 210.043 32.2441 208.854 32.2441C207.064 32.2441 205.611 31.6216 204.497 30.3765C203.39 29.1313 202.836 27.4834 202.836 25.4326V25.2739ZM205.107 25.5425C205.107 27.0073 205.445 28.1833 206.12 29.0703C206.804 29.9574 207.715 30.4009 208.854 30.4009C210.002 30.4009 210.913 29.9533 211.589 29.0581C212.264 28.1548 212.602 26.8934 212.602 25.2739C212.602 23.8254 212.256 22.6535 211.564 21.7583C210.881 20.855 209.969 20.4033 208.83 20.4033C207.715 20.4033 206.816 20.8468 206.132 21.7339C205.449 22.6209 205.107 23.8905 205.107 25.5425ZM219.829 18.792L219.902 20.4521C220.911 19.1826 222.229 18.5479 223.857 18.5479C226.648 18.5479 228.056 20.1226 228.081 23.272V32H225.822V23.2598C225.814 22.3076 225.594 21.6037 225.163 21.1479C224.74 20.6922 224.077 20.4644 223.173 20.4644C222.441 20.4644 221.798 20.6597 221.245 21.0503C220.691 21.4409 220.26 21.9536 219.951 22.5884V32H217.692V18.792H219.829Z" fill="white"/>
<defs>
<linearGradient id="paint0_linear" x1="0" y1="47" x2="240" y2="47" gradientUnits="userSpaceOnUse">
<stop stop-color="#FBB19C"/>
<stop offset="1" stop-color="#F57E7C"/>
</linearGradient>
</defs>
</svg>
