<svg width="180" height="120" viewBox="0 0 180 120" fill="none" xmlns="http://www.w3.org/2000/svg">
<rect width="180" height="120" rx="10" fill="#F4F1FA"/>
<path d="M32.7533 13.2256H28.8685V24H27.2831V13.2256H23.4066V11.9141H32.7533V13.2256ZM33.0687 19.4263C33.0687 18.5464 33.2403 17.755 33.5834 17.0522C33.932 16.3494 34.4135 15.8071 35.0277 15.4253C35.6475 15.0435 36.3531 14.8525 37.1444 14.8525C38.3674 14.8525 39.3552 15.2759 40.1078 16.1226C40.8659 16.9692 41.245 18.0954 41.245 19.501V19.6089C41.245 20.4832 41.0762 21.269 40.7386 21.9663C40.4066 22.658 39.9279 23.1976 39.3026 23.585C38.6828 23.9723 37.969 24.166 37.161 24.166C35.9436 24.166 34.9558 23.7427 34.1976 22.896C33.445 22.0493 33.0687 20.9287 33.0687 19.5342V19.4263ZM34.6127 19.6089C34.6127 20.605 34.8423 21.4046 35.3016 22.0078C35.7665 22.611 36.3863 22.9126 37.161 22.9126C37.9413 22.9126 38.5611 22.6082 39.0204 21.9995C39.4797 21.3853 39.7094 20.5275 39.7094 19.4263C39.7094 18.4412 39.4742 17.6444 39.0038 17.0356C38.5389 16.4214 37.9191 16.1143 37.1444 16.1143C36.3863 16.1143 35.7748 16.4159 35.3099 17.019C34.8451 17.6222 34.6127 18.4855 34.6127 19.6089ZM45.2543 12.8438V15.0186H46.931V16.2056H45.2543V21.7754C45.2543 22.1351 45.329 22.4062 45.4784 22.5889C45.6278 22.766 45.8824 22.8545 46.2421 22.8545C46.4191 22.8545 46.6626 22.8213 46.9725 22.7549V24C46.5686 24.1107 46.1757 24.166 45.7938 24.166C45.1076 24.166 44.5902 23.9585 44.2416 23.5435C43.8929 23.1284 43.7186 22.5391 43.7186 21.7754V16.2056H42.0834V15.0186H43.7186V12.8438H45.2543ZM54.2772 24C54.1887 23.8229 54.1167 23.5075 54.0614 23.0537C53.3475 23.7952 52.4953 24.166 51.5048 24.166C50.6193 24.166 49.8916 23.917 49.3217 23.4189C48.7572 22.9154 48.475 22.279 48.475 21.5098C48.475 20.5745 48.8291 19.8496 49.5375 19.335C50.2513 18.8148 51.253 18.5547 52.5424 18.5547H54.0365V17.8491C54.0365 17.3123 53.876 16.8862 53.5551 16.5708C53.2341 16.2498 52.7609 16.0894 52.1356 16.0894C51.5878 16.0894 51.1285 16.2277 50.7577 16.5044C50.3869 16.7811 50.2015 17.1159 50.2015 17.5088H48.6576C48.6576 17.0605 48.8153 16.6289 49.1307 16.2139C49.4517 15.7933 49.8833 15.4613 50.4257 15.2178C50.9735 14.9743 51.5739 14.8525 52.2269 14.8525C53.2618 14.8525 54.0725 15.1126 54.6591 15.6328C55.2456 16.1475 55.55 16.8586 55.5721 17.7661V21.8999C55.5721 22.7244 55.6773 23.3802 55.8876 23.8672V24H54.2772ZM51.7289 22.8296C52.2103 22.8296 52.6669 22.7051 53.0985 22.4561C53.5302 22.207 53.8428 21.8833 54.0365 21.4849V19.6421H52.8329C50.9514 19.6421 50.0106 20.1927 50.0106 21.2939C50.0106 21.7754 50.1711 22.1517 50.4921 22.4229C50.813 22.694 51.2253 22.8296 51.7289 22.8296ZM59.6478 24H58.1122V11.25H59.6478V24ZM67.9984 24H66.4628V15.0186H67.9984V24ZM66.3383 12.6362C66.3383 12.3872 66.413 12.1769 66.5624 12.0054C66.7173 11.8338 66.9442 11.748 67.243 11.748C67.5419 11.748 67.7688 11.8338 67.9237 12.0054C68.0787 12.1769 68.1561 12.3872 68.1561 12.6362C68.1561 12.8853 68.0787 13.0928 67.9237 13.2588C67.7688 13.4248 67.5419 13.5078 67.243 13.5078C66.9442 13.5078 66.7173 13.4248 66.5624 13.2588C66.413 13.0928 66.3383 12.8853 66.3383 12.6362ZM71.9081 15.0186L71.9496 16.0146C72.6081 15.2399 73.4963 14.8525 74.6141 14.8525C75.8703 14.8525 76.7253 15.334 77.1791 16.2969C77.4779 15.8652 77.8653 15.5166 78.3412 15.251C78.8226 14.9854 79.3899 14.8525 80.0428 14.8525C82.0129 14.8525 83.0145 15.8957 83.0477 17.9819V24H81.5121V18.0732C81.5121 17.4313 81.3654 16.9526 81.0721 16.6372C80.7788 16.3162 80.2863 16.1558 79.5946 16.1558C79.0246 16.1558 78.5515 16.3273 78.1752 16.6704C77.7989 17.008 77.5803 17.4645 77.5194 18.04V24H75.9755V18.1147C75.9755 16.8088 75.3363 16.1558 74.058 16.1558C73.0508 16.1558 72.3619 16.5846 71.9911 17.4424V24H70.4554V15.0186H71.9081ZM92.9589 19.6089C92.9589 20.9757 92.6462 22.077 92.0209 22.9126C91.3955 23.7482 90.5489 24.166 89.4808 24.166C88.3907 24.166 87.5329 23.8201 86.9076 23.1284V27.4531H85.3719V15.0186H86.7748L86.8495 16.0146C87.4748 15.2399 88.3436 14.8525 89.4559 14.8525C90.535 14.8525 91.3872 15.2593 92.0126 16.0728C92.6434 16.8862 92.9589 18.0179 92.9589 19.4678V19.6089ZM91.4232 19.4346C91.4232 18.4219 91.2074 17.6222 90.7758 17.0356C90.3441 16.4491 89.752 16.1558 88.9994 16.1558C88.0697 16.1558 87.3724 16.568 86.9076 17.3926V21.6841C87.3669 22.5031 88.0697 22.9126 89.016 22.9126C89.752 22.9126 90.3358 22.6221 90.7675 22.041C91.2046 21.4544 91.4232 20.5856 91.4232 19.4346ZM99.2592 16.3965C99.0267 16.3577 98.7749 16.3384 98.5038 16.3384C97.4966 16.3384 96.8132 16.7673 96.4535 17.625V24H94.9178V15.0186H96.412L96.4369 16.0562C96.9405 15.2537 97.6543 14.8525 98.5785 14.8525C98.8773 14.8525 99.1042 14.8913 99.2592 14.9688V16.3965ZM104.24 24.166C103.022 24.166 102.032 23.7676 101.268 22.9707C100.504 22.1683 100.122 21.0975 100.122 19.7583V19.4761C100.122 18.5851 100.291 17.791 100.629 17.0938C100.972 16.391 101.448 15.8431 102.057 15.4502C102.671 15.0518 103.335 14.8525 104.049 14.8525C105.216 14.8525 106.124 15.2371 106.771 16.0063C107.419 16.7756 107.743 17.8768 107.743 19.3101V19.9492H101.658C101.68 20.8346 101.938 21.5513 102.43 22.0991C102.928 22.6414 103.559 22.9126 104.323 22.9126C104.865 22.9126 105.324 22.8019 105.701 22.5806C106.077 22.3592 106.406 22.0659 106.688 21.7007L107.626 22.4312C106.874 23.5877 105.745 24.166 104.24 24.166ZM104.049 16.1143C103.429 16.1143 102.909 16.3411 102.488 16.7949C102.068 17.2432 101.807 17.874 101.708 18.6875H106.207V18.5713C106.163 17.791 105.952 17.1878 105.576 16.7617C105.2 16.3301 104.691 16.1143 104.049 16.1143ZM114.757 21.6177C114.757 21.2026 114.599 20.8817 114.284 20.6548C113.974 20.4224 113.429 20.2231 112.648 20.0571C111.874 19.8911 111.257 19.6919 110.797 19.4595C110.343 19.2271 110.006 18.9504 109.785 18.6294C109.569 18.3084 109.461 17.9266 109.461 17.4839C109.461 16.7479 109.771 16.1253 110.391 15.6162C111.016 15.1071 111.813 14.8525 112.781 14.8525C113.799 14.8525 114.624 15.1154 115.255 15.6411C115.891 16.1668 116.209 16.8392 116.209 17.6582H114.665C114.665 17.2376 114.486 16.8752 114.126 16.5708C113.772 16.2664 113.323 16.1143 112.781 16.1143C112.222 16.1143 111.785 16.236 111.47 16.4795C111.154 16.723 110.996 17.0412 110.996 17.4341C110.996 17.8049 111.143 18.0843 111.436 18.2725C111.73 18.4606 112.258 18.6405 113.022 18.812C113.791 18.9836 114.414 19.1883 114.89 19.4263C115.365 19.6642 115.717 19.952 115.944 20.2896C116.176 20.6216 116.292 21.0283 116.292 21.5098C116.292 22.3122 115.971 22.9569 115.329 23.4438C114.688 23.9253 113.855 24.166 112.831 24.166C112.112 24.166 111.475 24.0387 110.922 23.7842C110.368 23.5296 109.934 23.1755 109.619 22.7217C109.309 22.2624 109.154 21.7671 109.154 21.2358H110.689C110.717 21.7505 110.922 22.16 111.304 22.4644C111.691 22.7632 112.2 22.9126 112.831 22.9126C113.412 22.9126 113.877 22.7964 114.225 22.564C114.58 22.326 114.757 22.0106 114.757 21.6177ZM123.522 21.6177C123.522 21.2026 123.365 20.8817 123.049 20.6548C122.739 20.4224 122.194 20.2231 121.414 20.0571C120.639 19.8911 120.022 19.6919 119.563 19.4595C119.109 19.2271 118.772 18.9504 118.55 18.6294C118.334 18.3084 118.226 17.9266 118.226 17.4839C118.226 16.7479 118.536 16.1253 119.156 15.6162C119.781 15.1071 120.578 14.8525 121.547 14.8525C122.565 14.8525 123.39 15.1154 124.02 15.6411C124.657 16.1668 124.975 16.8392 124.975 17.6582H123.431C123.431 17.2376 123.251 16.8752 122.891 16.5708C122.537 16.2664 122.089 16.1143 121.547 16.1143C120.988 16.1143 120.551 16.236 120.235 16.4795C119.92 16.723 119.762 17.0412 119.762 17.4341C119.762 17.8049 119.909 18.0843 120.202 18.2725C120.495 18.4606 121.024 18.6405 121.787 18.812C122.557 18.9836 123.179 19.1883 123.655 19.4263C124.131 19.6642 124.482 19.952 124.709 20.2896C124.942 20.6216 125.058 21.0283 125.058 21.5098C125.058 22.3122 124.737 22.9569 124.095 23.4438C123.453 23.9253 122.62 24.166 121.597 24.166C120.877 24.166 120.241 24.0387 119.687 23.7842C119.134 23.5296 118.7 23.1755 118.384 22.7217C118.074 22.2624 117.919 21.7671 117.919 21.2358H119.455C119.483 21.7505 119.687 22.16 120.069 22.4644C120.457 22.7632 120.966 22.9126 121.597 22.9126C122.178 22.9126 122.642 22.7964 122.991 22.564C123.345 22.326 123.522 22.0106 123.522 21.6177ZM128.727 24H127.191V15.0186H128.727V24ZM127.067 12.6362C127.067 12.3872 127.141 12.1769 127.291 12.0054C127.446 11.8338 127.673 11.748 127.972 11.748C128.27 11.748 128.497 11.8338 128.652 12.0054C128.807 12.1769 128.885 12.3872 128.885 12.6362C128.885 12.8853 128.807 13.0928 128.652 13.2588C128.497 13.4248 128.27 13.5078 127.972 13.5078C127.673 13.5078 127.446 13.4248 127.291 13.2588C127.141 13.0928 127.067 12.8853 127.067 12.6362ZM130.786 19.4263C130.786 18.5464 130.957 17.755 131.3 17.0522C131.649 16.3494 132.13 15.8071 132.745 15.4253C133.364 15.0435 134.07 14.8525 134.861 14.8525C136.084 14.8525 137.072 15.2759 137.825 16.1226C138.583 16.9692 138.962 18.0954 138.962 19.501V19.6089C138.962 20.4832 138.793 21.269 138.455 21.9663C138.123 22.658 137.645 23.1976 137.019 23.585C136.4 23.9723 135.686 24.166 134.878 24.166C133.66 24.166 132.673 23.7427 131.914 22.896C131.162 22.0493 130.786 20.9287 130.786 19.5342V19.4263ZM132.329 19.6089C132.329 20.605 132.559 21.4046 133.018 22.0078C133.483 22.611 134.103 22.9126 134.878 22.9126C135.658 22.9126 136.278 22.6082 136.737 21.9995C137.196 21.3853 137.426 20.5275 137.426 19.4263C137.426 18.4412 137.191 17.6444 136.721 17.0356C136.256 16.4214 135.636 16.1143 134.861 16.1143C134.103 16.1143 133.492 16.4159 133.027 17.019C132.562 17.6222 132.329 18.4855 132.329 19.6089ZM142.34 15.0186L142.39 16.1475C143.076 15.2842 143.973 14.8525 145.079 14.8525C146.978 14.8525 147.935 15.9233 147.952 18.0649V24H146.416V18.0566C146.41 17.4092 146.261 16.9305 145.968 16.6206C145.68 16.3107 145.229 16.1558 144.615 16.1558C144.117 16.1558 143.679 16.2886 143.303 16.5542C142.927 16.8198 142.634 17.1685 142.423 17.6001V24H140.888V15.0186H142.34ZM155.497 21.6177C155.497 21.2026 155.339 20.8817 155.024 20.6548C154.714 20.4224 154.169 20.2231 153.389 20.0571C152.614 19.8911 151.997 19.6919 151.537 19.4595C151.084 19.2271 150.746 18.9504 150.525 18.6294C150.309 18.3084 150.201 17.9266 150.201 17.4839C150.201 16.7479 150.511 16.1253 151.131 15.6162C151.756 15.1071 152.553 14.8525 153.521 14.8525C154.54 14.8525 155.364 15.1154 155.995 15.6411C156.631 16.1668 156.95 16.8392 156.95 17.6582H155.406C155.406 17.2376 155.226 16.8752 154.866 16.5708C154.512 16.2664 154.064 16.1143 153.521 16.1143C152.962 16.1143 152.525 16.236 152.21 16.4795C151.894 16.723 151.737 17.0412 151.737 17.4341C151.737 17.8049 151.883 18.0843 152.177 18.2725C152.47 18.4606 152.998 18.6405 153.762 18.812C154.531 18.9836 155.154 19.1883 155.63 19.4263C156.106 19.6642 156.457 19.952 156.684 20.2896C156.916 20.6216 157.033 21.0283 157.033 21.5098C157.033 22.3122 156.712 22.9569 156.07 23.4438C155.428 23.9253 154.595 24.166 153.571 24.166C152.852 24.166 152.215 24.0387 151.662 23.7842C151.109 23.5296 150.674 23.1755 150.359 22.7217C150.049 22.2624 149.894 21.7671 149.894 21.2358H151.43C151.457 21.7505 151.662 22.16 152.044 22.4644C152.431 22.7632 152.94 22.9126 153.571 22.9126C154.152 22.9126 154.617 22.7964 154.966 22.564C155.32 22.326 155.497 22.0106 155.497 21.6177Z" fill="#8E8E8E"/>
<path d="M81.7471 71H67.7725V69.0518L75.1553 60.8486C76.249 59.6084 77.001 58.6025 77.4111 57.8311C77.8311 57.0498 78.041 56.2441 78.041 55.4141C78.041 54.3008 77.7041 53.3877 77.0303 52.6748C76.3564 51.9619 75.458 51.6055 74.335 51.6055C72.9873 51.6055 71.9375 51.9912 71.1855 52.7627C70.4434 53.5244 70.0723 54.5889 70.0723 55.9561H67.3623C67.3623 53.9932 67.9922 52.4062 69.252 51.1953C70.5215 49.9844 72.2158 49.3789 74.335 49.3789C76.3174 49.3789 77.8848 49.9014 79.0371 50.9463C80.1895 51.9814 80.7656 53.3633 80.7656 55.0918C80.7656 57.1914 79.4277 59.6914 76.752 62.5918L71.0391 68.7881H81.7471V71ZM96.0586 63.8369H99.0176V66.0488H96.0586V71H93.334V66.0488H83.6221V64.4521L93.1729 49.6719H96.0586V63.8369ZM86.6982 63.8369H93.334V53.3779L93.0117 53.9639L86.6982 63.8369ZM106.166 63.6611L104.467 65.4336V71H101.757V48.5H104.467V62.1084L105.917 60.3652L110.854 55.1504H114.149L107.982 61.7715L114.867 71H111.688L106.166 63.6611Z" fill="black"/>
<path d="M66 111L76 93H56L66 111Z" fill="#D23333"/>
<path d="M84.9072 101.28H87.8809V102.562H84.9072V105.931H83.5449V102.562H80.5713V101.28H83.5449V98.167H84.9072V101.28ZM91.3672 101.009H92.3853C93.0249 100.999 93.5278 100.831 93.894 100.503C94.2603 100.176 94.4434 99.7344 94.4434 99.1777C94.4434 97.9277 93.8208 97.3027 92.5757 97.3027C91.9897 97.3027 91.521 97.4712 91.1694 97.8081C90.8228 98.1401 90.6494 98.582 90.6494 99.1338H89.2944C89.2944 98.2891 89.6021 97.5884 90.2173 97.0317C90.8374 96.4702 91.6235 96.1895 92.5757 96.1895C93.5815 96.1895 94.3701 96.4556 94.9414 96.9878C95.5127 97.52 95.7983 98.2598 95.7983 99.207C95.7983 99.6709 95.647 100.12 95.3442 100.555C95.0464 100.989 94.6387 101.314 94.1211 101.529C94.707 101.714 95.1587 102.022 95.4761 102.452C95.7983 102.881 95.9595 103.406 95.9595 104.026C95.9595 104.983 95.647 105.743 95.022 106.304C94.397 106.866 93.584 107.146 92.583 107.146C91.582 107.146 90.7666 106.875 90.1367 106.333C89.5117 105.792 89.1992 105.076 89.1992 104.188H90.5615C90.5615 104.749 90.7446 105.198 91.1108 105.535C91.4771 105.872 91.9678 106.041 92.583 106.041C93.2373 106.041 93.7378 105.87 94.0845 105.528C94.4312 105.186 94.6045 104.695 94.6045 104.056C94.6045 103.436 94.4141 102.959 94.0332 102.627C93.6523 102.295 93.103 102.125 92.3853 102.115H91.3672V101.009ZM97.9883 106.29C97.9883 106.055 98.0566 105.86 98.1934 105.704C98.335 105.547 98.5449 105.469 98.8232 105.469C99.1016 105.469 99.3115 105.547 99.4531 105.704C99.5996 105.86 99.6729 106.055 99.6729 106.29C99.6729 106.514 99.5996 106.702 99.4531 106.854C99.3115 107.005 99.1016 107.081 98.8232 107.081C98.5449 107.081 98.335 107.005 98.1934 106.854C98.0566 106.702 97.9883 106.514 97.9883 106.29ZM103.745 101.009H104.763C105.403 100.999 105.906 100.831 106.272 100.503C106.638 100.176 106.821 99.7344 106.821 99.1777C106.821 97.9277 106.199 97.3027 104.954 97.3027C104.368 97.3027 103.899 97.4712 103.547 97.8081C103.201 98.1401 103.027 98.582 103.027 99.1338H101.672C101.672 98.2891 101.98 97.5884 102.595 97.0317C103.215 96.4702 104.001 96.1895 104.954 96.1895C105.959 96.1895 106.748 96.4556 107.319 96.9878C107.891 97.52 108.176 98.2598 108.176 99.207C108.176 99.6709 108.025 100.12 107.722 100.555C107.424 100.989 107.017 101.314 106.499 101.529C107.085 101.714 107.537 102.022 107.854 102.452C108.176 102.881 108.337 103.406 108.337 104.026C108.337 104.983 108.025 105.743 107.4 106.304C106.775 106.866 105.962 107.146 104.961 107.146C103.96 107.146 103.145 106.875 102.515 106.333C101.89 105.792 101.577 105.076 101.577 104.188H102.939C102.939 104.749 103.123 105.198 103.489 105.535C103.855 105.872 104.346 106.041 104.961 106.041C105.615 106.041 106.116 105.87 106.462 105.528C106.809 105.186 106.982 104.695 106.982 104.056C106.982 103.436 106.792 102.959 106.411 102.627C106.03 102.295 105.481 102.125 104.763 102.115H103.745V101.009ZM110.081 98.3867C110.081 97.7471 110.283 97.2197 110.688 96.8047C111.099 96.3896 111.624 96.1821 112.263 96.1821C112.913 96.1821 113.438 96.3921 113.838 96.812C114.243 97.2271 114.446 97.7666 114.446 98.4307V98.9507C114.446 99.5952 114.241 100.123 113.831 100.533C113.425 100.938 112.908 101.141 112.278 101.141C111.643 101.141 111.118 100.938 110.703 100.533C110.288 100.123 110.081 99.5781 110.081 98.8994V98.3867ZM111.091 98.9507C111.091 99.3315 111.199 99.6465 111.414 99.8955C111.628 100.14 111.917 100.262 112.278 100.262C112.625 100.262 112.903 100.142 113.113 99.9028C113.328 99.6636 113.435 99.3364 113.435 98.9214V98.3867C113.435 98.0059 113.33 97.6909 113.12 97.4419C112.91 97.1929 112.625 97.0684 112.263 97.0684C111.902 97.0684 111.616 97.1929 111.406 97.4419C111.196 97.6909 111.091 98.0156 111.091 98.416V98.9507ZM115.273 104.385C115.273 103.746 115.476 103.221 115.881 102.811C116.292 102.396 116.816 102.188 117.456 102.188C118.096 102.188 118.621 102.393 119.031 102.803C119.441 103.213 119.646 103.758 119.646 104.437V104.957C119.646 105.596 119.441 106.124 119.031 106.539C118.625 106.949 118.105 107.154 117.471 107.154C116.836 107.154 116.311 106.951 115.896 106.546C115.481 106.136 115.273 105.591 115.273 104.913V104.385ZM116.284 104.957C116.284 105.342 116.392 105.66 116.606 105.909C116.821 106.153 117.109 106.275 117.471 106.275C117.822 106.275 118.103 106.155 118.313 105.916C118.523 105.672 118.628 105.342 118.628 104.927V104.385C118.628 104 118.521 103.685 118.306 103.44C118.096 103.196 117.812 103.074 117.456 103.074C117.109 103.074 116.826 103.196 116.606 103.44C116.392 103.68 116.284 104.004 116.284 104.415V104.957ZM112.585 106.194L111.816 105.711L117.024 97.376L117.793 97.8594L112.585 106.194Z" fill="#CF2626"/>
</svg>
