<svg width="65" height="28" viewBox="0 0 65 28" fill="none" xmlns="http://www.w3.org/2000/svg">
<rect x="0.478943" y="0.654175" width="64.2381" height="27.1" rx="13.55" fill="#5D5FEF"/>
<path d="M7.79773 7.77393L11.9813 18.2153L16.1649 7.77393H18.3534V20.5708H16.6659V15.5874L16.8241 10.2085L12.6229 20.5708H11.3309L7.13855 10.2349L7.30554 15.5874V20.5708H5.61804V7.77393H7.79773ZM20.6473 15.728C20.6473 14.7964 20.829 13.9585 21.1923 13.2144C21.5614 12.4702 22.0712 11.896 22.7216 11.4917C23.3778 11.0874 24.1249 10.8853 24.9628 10.8853C26.2577 10.8853 27.3036 11.3335 28.1005 12.23C28.9032 13.1265 29.3046 14.3188 29.3046 15.8071V15.9214C29.3046 16.8472 29.1259 17.6792 28.7684 18.4175C28.4169 19.1499 27.91 19.7212 27.2479 20.1313C26.5917 20.5415 25.8358 20.7466 24.9803 20.7466C23.6913 20.7466 22.6454 20.2983 21.8427 19.4019C21.0458 18.5054 20.6473 17.3188 20.6473 15.8423V15.728ZM22.2821 15.9214C22.2821 16.9761 22.5253 17.8228 23.0116 18.4614C23.5038 19.1001 24.16 19.4194 24.9803 19.4194C25.8065 19.4194 26.4628 19.0972 26.9491 18.4526C27.4354 17.8022 27.6786 16.894 27.6786 15.728C27.6786 14.6851 27.4296 13.8413 26.9315 13.1968C26.4393 12.5464 25.7831 12.2212 24.9628 12.2212C24.16 12.2212 23.5126 12.5405 23.0204 13.1792C22.5282 13.8179 22.2821 14.7319 22.2821 15.9214ZM32.8817 11.061L32.9344 12.2563C33.661 11.3423 34.6102 10.8853 35.7821 10.8853C37.7919 10.8853 38.8055 12.019 38.8231 14.2866V20.5708H37.1971V14.2778C37.1913 13.5923 37.0331 13.0854 36.7225 12.7573C36.4178 12.4292 35.9403 12.2651 35.2899 12.2651C34.7626 12.2651 34.2997 12.4058 33.9012 12.687C33.5028 12.9683 33.1923 13.3374 32.9696 13.7944V20.5708H31.3436V11.061H32.8817ZM43.4813 8.7583V11.061H45.2567V12.3179H43.4813V18.2153C43.4813 18.5962 43.5604 18.8833 43.7186 19.0767C43.8768 19.2642 44.1464 19.3579 44.5272 19.3579C44.7147 19.3579 44.9725 19.3228 45.3007 19.2524V20.5708C44.8729 20.688 44.4569 20.7466 44.0526 20.7466C43.326 20.7466 42.7782 20.5269 42.4091 20.0874C42.0399 19.6479 41.8553 19.0239 41.8553 18.2153V12.3179H40.1239V11.061H41.8553V8.7583H43.4813ZM48.7899 12.2124C49.5106 11.3276 50.4481 10.8853 51.6024 10.8853C53.6122 10.8853 54.6259 12.019 54.6434 14.2866V20.5708H53.0175V14.2778C53.0116 13.5923 52.8534 13.0854 52.5428 12.7573C52.2382 12.4292 51.7606 12.2651 51.1102 12.2651C50.5829 12.2651 50.12 12.4058 49.7216 12.687C49.3231 12.9683 49.0126 13.3374 48.7899 13.7944V20.5708H47.1639V7.0708H48.7899V12.2124Z" fill="white"/>
</svg>
