<svg width="480" height="248" viewBox="0 0 480 248" fill="none" xmlns="http://www.w3.org/2000/svg">
<rect width="480" height="248" rx="10" fill="#FFF0EE" fill-opacity="0.58"/>
<path d="M365.94 169.04C365.94 169.173 365.873 169.24 365.74 169.24H358.38C358.327 169.24 358.3 169.267 358.3 169.32V174.26C358.3 174.313 358.327 174.34 358.38 174.34H363.54C363.673 174.34 363.74 174.407 363.74 174.54V175.38C363.74 175.513 363.673 175.58 363.54 175.58H358.38C358.327 175.58 358.3 175.607 358.3 175.66V180.68C358.3 180.733 358.327 180.76 358.38 180.76H365.74C365.873 180.76 365.94 180.827 365.94 180.96V181.8C365.94 181.933 365.873 182 365.74 182H357.08C356.947 182 356.88 181.933 356.88 181.8V168.2C356.88 168.067 356.947 168 357.08 168H365.74C365.873 168 365.94 168.067 365.94 168.2V169.04ZM371.289 182C371.169 182 371.089 181.947 371.049 181.84L367.769 172.1L367.749 172.02C367.749 171.927 367.809 171.88 367.929 171.88H369.069C369.189 171.88 369.269 171.933 369.309 172.04L371.809 179.88C371.823 179.907 371.843 179.92 371.869 179.92C371.896 179.92 371.916 179.907 371.929 179.88L374.429 172.04C374.469 171.933 374.549 171.88 374.669 171.88L375.809 171.9C375.956 171.9 376.009 171.973 375.969 172.12L372.689 181.84C372.649 181.947 372.569 182 372.449 182H371.289ZM385.63 175.24C385.683 175.613 385.71 176.08 385.71 176.64V177.28C385.71 177.413 385.643 177.48 385.51 177.48H379.05C378.996 177.48 378.97 177.507 378.97 177.56C378.996 178.293 379.036 178.767 379.09 178.98C379.236 179.58 379.55 180.053 380.03 180.4C380.51 180.747 381.123 180.92 381.87 180.92C382.43 180.92 382.923 180.793 383.35 180.54C383.776 180.287 384.11 179.927 384.35 179.46C384.43 179.34 384.523 179.313 384.63 179.38L385.41 179.84C385.516 179.907 385.543 180 385.49 180.12C385.156 180.76 384.656 181.267 383.99 181.64C383.323 182 382.556 182.18 381.69 182.18C380.743 182.167 379.95 181.94 379.31 181.5C378.67 181.06 378.21 180.447 377.93 179.66C377.69 179.02 377.57 178.1 377.57 176.9C377.57 176.34 377.576 175.887 377.59 175.54C377.616 175.18 377.67 174.86 377.75 174.58C377.976 173.713 378.43 173.02 379.11 172.5C379.803 171.98 380.636 171.72 381.61 171.72C382.823 171.72 383.756 172.027 384.41 172.64C385.063 173.253 385.47 174.12 385.63 175.24ZM381.61 172.96C380.956 172.96 380.41 173.133 379.97 173.48C379.543 173.813 379.263 174.267 379.13 174.84C379.05 175.12 378.996 175.573 378.97 176.2C378.97 176.253 378.996 176.28 379.05 176.28H384.23C384.283 176.28 384.31 176.253 384.31 176.2C384.283 175.6 384.243 175.173 384.19 174.92C384.043 174.32 383.743 173.847 383.29 173.5C382.85 173.14 382.29 172.96 381.61 172.96ZM392.734 171.74C393.8 171.74 394.647 172.053 395.274 172.68C395.914 173.307 396.234 174.147 396.234 175.2V181.8C396.234 181.933 396.167 182 396.034 182H395.014C394.88 182 394.814 181.933 394.814 181.8V175.48C394.814 174.747 394.587 174.147 394.134 173.68C393.694 173.213 393.12 172.98 392.414 172.98C391.68 172.98 391.087 173.207 390.634 173.66C390.18 174.113 389.954 174.707 389.954 175.44V181.8C389.954 181.933 389.887 182 389.754 182H388.734C388.6 182 388.534 181.933 388.534 181.8V172.08C388.534 171.947 388.6 171.88 388.734 171.88H389.754C389.887 171.88 389.954 171.947 389.954 172.08V172.94C389.954 172.967 389.96 172.987 389.974 173C390 173.013 390.02 173.007 390.034 172.98C390.62 172.153 391.52 171.74 392.734 171.74ZM400.275 170.04C399.955 170.04 399.688 169.933 399.475 169.72C399.262 169.507 399.155 169.24 399.155 168.92C399.155 168.587 399.262 168.32 399.475 168.12C399.688 167.907 399.955 167.8 400.275 167.8C400.595 167.8 400.862 167.907 401.075 168.12C401.288 168.32 401.395 168.587 401.395 168.92C401.395 169.24 401.288 169.507 401.075 169.72C400.862 169.933 400.595 170.04 400.275 170.04ZM399.715 181.98C399.582 181.98 399.515 181.913 399.515 181.78V172.06C399.515 171.927 399.582 171.86 399.715 171.86H400.735C400.868 171.86 400.935 171.927 400.935 172.06V181.78C400.935 181.913 400.868 181.98 400.735 181.98H399.715ZM408.613 171.74C409.679 171.74 410.526 172.053 411.153 172.68C411.793 173.307 412.113 174.147 412.113 175.2V181.8C412.113 181.933 412.046 182 411.913 182H410.893C410.759 182 410.693 181.933 410.693 181.8V175.48C410.693 174.747 410.466 174.147 410.013 173.68C409.573 173.213 408.999 172.98 408.293 172.98C407.559 172.98 406.966 173.207 406.513 173.66C406.059 174.113 405.833 174.707 405.833 175.44V181.8C405.833 181.933 405.766 182 405.633 182H404.613C404.479 182 404.413 181.933 404.413 181.8V172.08C404.413 171.947 404.479 171.88 404.613 171.88H405.633C405.766 171.88 405.833 171.947 405.833 172.08V172.94C405.833 172.967 405.839 172.987 405.853 173C405.879 173.013 405.899 173.007 405.913 172.98C406.499 172.153 407.399 171.74 408.613 171.74ZM421.434 172.08C421.434 171.947 421.5 171.88 421.634 171.88H422.654C422.787 171.88 422.854 171.947 422.854 172.08V181.66C422.854 183.153 422.42 184.247 421.554 184.94C420.7 185.633 419.52 185.98 418.014 185.98C417.707 185.98 417.474 185.973 417.314 185.96C417.18 185.947 417.114 185.873 417.114 185.74L417.154 184.82C417.154 184.753 417.174 184.7 417.214 184.66C417.254 184.633 417.3 184.627 417.354 184.64L417.894 184.66C419.134 184.66 420.034 184.413 420.594 183.92C421.154 183.44 421.434 182.673 421.434 181.62V180.88C421.434 180.853 421.42 180.84 421.394 180.84C421.38 180.827 421.36 180.833 421.334 180.86C420.72 181.66 419.847 182.06 418.714 182.06C417.847 182.06 417.074 181.827 416.394 181.36C415.727 180.893 415.28 180.233 415.054 179.38C414.894 178.833 414.814 178.02 414.814 176.94C414.814 176.353 414.827 175.86 414.854 175.46C414.894 175.06 414.967 174.7 415.074 174.38C415.314 173.58 415.747 172.94 416.374 172.46C417 171.967 417.754 171.72 418.634 171.72C419.82 171.72 420.72 172.113 421.334 172.9C421.36 172.927 421.38 172.933 421.394 172.92C421.42 172.907 421.434 172.887 421.434 172.86V172.08ZM421.334 178.94C421.374 178.74 421.4 178.493 421.414 178.2C421.427 177.907 421.434 177.48 421.434 176.92C421.434 176.24 421.427 175.787 421.414 175.56C421.4 175.32 421.367 175.1 421.314 174.9C421.207 174.34 420.94 173.88 420.514 173.52C420.1 173.147 419.574 172.96 418.934 172.96C418.307 172.96 417.774 173.14 417.334 173.5C416.907 173.86 416.607 174.327 416.434 174.9C416.3 175.327 416.234 175.993 416.234 176.9C416.234 177.873 416.3 178.547 416.434 178.92C416.567 179.48 416.854 179.947 417.294 180.32C417.747 180.68 418.294 180.86 418.934 180.86C419.587 180.86 420.12 180.68 420.534 180.32C420.96 179.96 421.227 179.5 421.334 178.94Z" fill="black"/>
<rect x="300" y="83" width="30" height="30" fill="#CA498C"/>
<path d="M365.18 144C365.06 144 364.98 143.947 364.94 143.84L364.14 141.32C364.127 141.28 364.1 141.26 364.06 141.26H358.08C358.04 141.26 358.013 141.28 358 141.32L357.2 143.84C357.16 143.947 357.08 144 356.96 144H355.88C355.733 144 355.68 143.927 355.72 143.78L360.14 130.16C360.18 130.053 360.26 130 360.38 130H361.74C361.86 130 361.94 130.053 361.98 130.16L366.42 143.78L366.44 143.86C366.44 143.953 366.38 144 366.26 144H365.18ZM358.4 140C358.387 140.027 358.387 140.053 358.4 140.08C358.427 140.093 358.453 140.1 358.48 140.1H363.64C363.667 140.1 363.687 140.093 363.7 140.08C363.727 140.053 363.733 140.027 363.72 140L361.12 131.84C361.107 131.813 361.087 131.8 361.06 131.8C361.033 131.8 361.013 131.813 361 131.84L358.4 140ZM372.514 131.24C371.781 131.24 371.281 131.407 371.014 131.74C370.747 132.06 370.614 132.613 370.614 133.4V133.8C370.614 133.853 370.641 133.88 370.694 133.88H372.934C373.067 133.88 373.134 133.947 373.134 134.08V134.98C373.134 135.113 373.067 135.18 372.934 135.18H370.694C370.641 135.18 370.614 135.207 370.614 135.26V143.8C370.614 143.933 370.547 144 370.414 144H369.414C369.281 144 369.214 143.933 369.214 143.8V135.26C369.214 135.207 369.187 135.18 369.134 135.18H367.794C367.661 135.18 367.594 135.113 367.594 134.98V134.08C367.594 133.947 367.661 133.88 367.794 133.88H369.134C369.187 133.88 369.214 133.853 369.214 133.8V133.32C369.214 132.493 369.307 131.847 369.494 131.38C369.681 130.9 370.001 130.553 370.454 130.34C370.921 130.113 371.567 130 372.394 130H372.974C373.107 130 373.174 130.067 373.174 130.2V131.04C373.174 131.173 373.107 131.24 372.974 131.24H372.514ZM380.183 134.86C380.183 134.993 380.116 135.06 379.983 135.06H377.723C377.67 135.06 377.643 135.087 377.643 135.14V141.04C377.643 141.68 377.783 142.133 378.063 142.4C378.356 142.653 378.81 142.78 379.423 142.78H379.923C380.056 142.78 380.123 142.847 380.123 142.98V143.8C380.123 143.933 380.056 144 379.923 144C379.763 144.013 379.516 144.02 379.183 144.02C378.223 144.02 377.496 143.84 377.003 143.48C376.51 143.12 376.263 142.453 376.263 141.48V135.14C376.263 135.087 376.236 135.06 376.183 135.06H374.963C374.83 135.06 374.763 134.993 374.763 134.86V134.08C374.763 133.947 374.83 133.88 374.963 133.88H376.183C376.236 133.88 376.263 133.853 376.263 133.8V131.48C376.263 131.347 376.33 131.28 376.463 131.28H377.443C377.576 131.28 377.643 131.347 377.643 131.48V133.8C377.643 133.853 377.67 133.88 377.723 133.88H379.983C380.116 133.88 380.183 133.947 380.183 134.08V134.86ZM390.395 137.24C390.448 137.613 390.475 138.08 390.475 138.64V139.28C390.475 139.413 390.408 139.48 390.275 139.48H383.815C383.762 139.48 383.735 139.507 383.735 139.56C383.762 140.293 383.802 140.767 383.855 140.98C384.002 141.58 384.315 142.053 384.795 142.4C385.275 142.747 385.888 142.92 386.635 142.92C387.195 142.92 387.688 142.793 388.115 142.54C388.542 142.287 388.875 141.927 389.115 141.46C389.195 141.34 389.288 141.313 389.395 141.38L390.175 141.84C390.282 141.907 390.308 142 390.255 142.12C389.922 142.76 389.422 143.267 388.755 143.64C388.088 144 387.322 144.18 386.455 144.18C385.508 144.167 384.715 143.94 384.075 143.5C383.435 143.06 382.975 142.447 382.695 141.66C382.455 141.02 382.335 140.1 382.335 138.9C382.335 138.34 382.342 137.887 382.355 137.54C382.382 137.18 382.435 136.86 382.515 136.58C382.742 135.713 383.195 135.02 383.875 134.5C384.568 133.98 385.402 133.72 386.375 133.72C387.588 133.72 388.522 134.027 389.175 134.64C389.828 135.253 390.235 136.12 390.395 137.24ZM386.375 134.96C385.722 134.96 385.175 135.133 384.735 135.48C384.308 135.813 384.028 136.267 383.895 136.84C383.815 137.12 383.762 137.573 383.735 138.2C383.735 138.253 383.762 138.28 383.815 138.28H388.995C389.048 138.28 389.075 138.253 389.075 138.2C389.048 137.6 389.008 137.173 388.955 136.92C388.808 136.32 388.508 135.847 388.055 135.5C387.615 135.14 387.055 134.96 386.375 134.96ZM397.379 133.78C397.819 133.78 398.199 133.867 398.519 134.04C398.626 134.093 398.666 134.18 398.639 134.3L398.419 135.28C398.379 135.413 398.293 135.453 398.159 135.4C397.933 135.307 397.673 135.26 397.379 135.26L397.119 135.28C396.426 135.307 395.853 135.567 395.399 136.06C394.946 136.54 394.719 137.153 394.719 137.9V143.8C394.719 143.933 394.653 144 394.519 144H393.499C393.366 144 393.299 143.933 393.299 143.8V134.08C393.299 133.947 393.366 133.88 393.499 133.88H394.519C394.653 133.88 394.719 133.947 394.719 134.08V135.3C394.719 135.34 394.726 135.367 394.739 135.38C394.766 135.38 394.786 135.367 394.799 135.34C395.079 134.847 395.433 134.467 395.859 134.2C396.299 133.92 396.806 133.78 397.379 133.78ZM404.784 133.74C405.851 133.74 406.698 134.053 407.324 134.68C407.964 135.307 408.284 136.147 408.284 137.2V143.8C408.284 143.933 408.218 144 408.084 144H407.064C406.931 144 406.864 143.933 406.864 143.8V137.48C406.864 136.747 406.638 136.147 406.184 135.68C405.744 135.213 405.171 134.98 404.464 134.98C403.731 134.98 403.138 135.207 402.684 135.66C402.231 136.113 402.004 136.707 402.004 137.44V143.8C402.004 143.933 401.938 144 401.804 144H400.784C400.651 144 400.584 143.933 400.584 143.8V134.08C400.584 133.947 400.651 133.88 400.784 133.88H401.804C401.938 133.88 402.004 133.947 402.004 134.08V134.94C402.004 134.967 402.011 134.987 402.024 135C402.051 135.013 402.071 135.007 402.084 134.98C402.671 134.153 403.571 133.74 404.784 133.74ZM415.089 144.16C414.129 144.16 413.302 143.913 412.609 143.42C411.916 142.927 411.436 142.247 411.169 141.38C410.982 140.767 410.889 139.947 410.889 138.92C410.889 137.893 410.982 137.08 411.169 136.48C411.422 135.627 411.896 134.953 412.589 134.46C413.282 133.967 414.122 133.72 415.109 133.72C416.056 133.72 416.869 133.967 417.549 134.46C418.242 134.953 418.716 135.62 418.969 136.46C419.156 137.033 419.249 137.853 419.249 138.92C419.249 140 419.156 140.82 418.969 141.38C418.716 142.247 418.242 142.927 417.549 143.42C416.869 143.913 416.049 144.16 415.089 144.16ZM415.089 142.92C415.729 142.92 416.276 142.747 416.729 142.4C417.182 142.04 417.489 141.56 417.649 140.96C417.769 140.48 417.829 139.807 417.829 138.94C417.829 138.06 417.776 137.387 417.669 136.92C417.509 136.32 417.196 135.847 416.729 135.5C416.276 135.14 415.722 134.96 415.069 134.96C414.416 134.96 413.862 135.14 413.409 135.5C412.956 135.847 412.649 136.32 412.489 136.92C412.382 137.387 412.329 138.06 412.329 138.94C412.329 139.82 412.382 140.493 412.489 140.96C412.636 141.56 412.936 142.04 413.389 142.4C413.856 142.747 414.422 142.92 415.089 142.92ZM425.987 144.16C425.027 144.16 424.201 143.913 423.507 143.42C422.814 142.927 422.334 142.247 422.067 141.38C421.881 140.767 421.787 139.947 421.787 138.92C421.787 137.893 421.881 137.08 422.067 136.48C422.321 135.627 422.794 134.953 423.487 134.46C424.181 133.967 425.021 133.72 426.007 133.72C426.954 133.72 427.767 133.967 428.447 134.46C429.141 134.953 429.614 135.62 429.867 136.46C430.054 137.033 430.147 137.853 430.147 138.92C430.147 140 430.054 140.82 429.867 141.38C429.614 142.247 429.141 142.927 428.447 143.42C427.767 143.913 426.947 144.16 425.987 144.16ZM425.987 142.92C426.627 142.92 427.174 142.747 427.627 142.4C428.081 142.04 428.387 141.56 428.547 140.96C428.667 140.48 428.727 139.807 428.727 138.94C428.727 138.06 428.674 137.387 428.567 136.92C428.407 136.32 428.094 135.847 427.627 135.5C427.174 135.14 426.621 134.96 425.967 134.96C425.314 134.96 424.761 135.14 424.307 135.5C423.854 135.847 423.547 136.32 423.387 136.92C423.281 137.387 423.227 138.06 423.227 138.94C423.227 139.82 423.281 140.493 423.387 140.96C423.534 141.56 423.834 142.04 424.287 142.4C424.754 142.747 425.321 142.92 425.987 142.92ZM437.226 133.74C438.292 133.74 439.139 134.053 439.766 134.68C440.406 135.307 440.726 136.147 440.726 137.2V143.8C440.726 143.933 440.659 144 440.526 144H439.506C439.372 144 439.306 143.933 439.306 143.8V137.48C439.306 136.747 439.079 136.147 438.626 135.68C438.186 135.213 437.612 134.98 436.906 134.98C436.172 134.98 435.579 135.207 435.126 135.66C434.672 136.113 434.446 136.707 434.446 137.44V143.8C434.446 143.933 434.379 144 434.246 144H433.226C433.092 144 433.026 143.933 433.026 143.8V134.08C433.026 133.947 433.092 133.88 433.226 133.88H434.246C434.379 133.88 434.446 133.947 434.446 134.08V134.94C434.446 134.967 434.452 134.987 434.466 135C434.492 135.013 434.512 135.007 434.526 134.98C435.112 134.153 436.012 133.74 437.226 133.74Z" fill="black"/>
<rect x="300" y="121" width="30" height="30" fill="#FDE3DF"/>
<path d="M365.96 92.14C366.027 92.0467 366.107 92 366.2 92H367.24C367.373 92 367.44 92.0667 367.44 92.2V105.8C367.44 105.933 367.373 106 367.24 106H366.22C366.087 106 366.02 105.933 366.02 105.8V94.68C366.02 94.64 366.007 94.6133 365.98 94.6C365.953 94.5867 365.933 94.6 365.92 94.64L362.66 99.64C362.593 99.7333 362.513 99.78 362.42 99.78H361.9C361.807 99.78 361.727 99.74 361.66 99.66L358.4 94.7C358.387 94.66 358.367 94.6467 358.34 94.66C358.313 94.6733 358.3 94.7 358.3 94.74V105.8C358.3 105.933 358.233 106 358.1 106H357.08C356.947 106 356.88 105.933 356.88 105.8V92.2C356.88 92.0667 356.947 92 357.08 92H358.12C358.227 92 358.307 92.04 358.36 92.12L362.12 97.82C362.133 97.8333 362.153 97.84 362.18 97.84C362.207 97.84 362.227 97.8333 362.24 97.82L365.96 92.14ZM374.757 106.16C373.797 106.16 372.97 105.913 372.277 105.42C371.584 104.927 371.104 104.247 370.837 103.38C370.65 102.767 370.557 101.947 370.557 100.92C370.557 99.8933 370.65 99.08 370.837 98.48C371.09 97.6267 371.564 96.9533 372.257 96.46C372.95 95.9667 373.79 95.72 374.777 95.72C375.724 95.72 376.537 95.9667 377.217 96.46C377.91 96.9533 378.384 97.62 378.637 98.46C378.824 99.0333 378.917 99.8533 378.917 100.92C378.917 102 378.824 102.82 378.637 103.38C378.384 104.247 377.91 104.927 377.217 105.42C376.537 105.913 375.717 106.16 374.757 106.16ZM374.757 104.92C375.397 104.92 375.944 104.747 376.397 104.4C376.85 104.04 377.157 103.56 377.317 102.96C377.437 102.48 377.497 101.807 377.497 100.94C377.497 100.06 377.444 99.3867 377.337 98.92C377.177 98.32 376.864 97.8467 376.397 97.5C375.944 97.14 375.39 96.96 374.737 96.96C374.084 96.96 373.53 97.14 373.077 97.5C372.624 97.8467 372.317 98.32 372.157 98.92C372.05 99.3867 371.997 100.06 371.997 100.94C371.997 101.82 372.05 102.493 372.157 102.96C372.304 103.56 372.604 104.04 373.057 104.4C373.524 104.747 374.09 104.92 374.757 104.92ZM385.875 95.78C386.315 95.78 386.695 95.8667 387.015 96.04C387.122 96.0933 387.162 96.18 387.135 96.3L386.915 97.28C386.875 97.4133 386.789 97.4533 386.655 97.4C386.429 97.3067 386.169 97.26 385.875 97.26L385.615 97.28C384.922 97.3067 384.349 97.5667 383.895 98.06C383.442 98.54 383.215 99.1533 383.215 99.9V105.8C383.215 105.933 383.149 106 383.015 106H381.995C381.862 106 381.795 105.933 381.795 105.8V96.08C381.795 95.9467 381.862 95.88 381.995 95.88H383.015C383.149 95.88 383.215 95.9467 383.215 96.08V97.3C383.215 97.34 383.222 97.3667 383.235 97.38C383.262 97.38 383.282 97.3667 383.295 97.34C383.575 96.8467 383.929 96.4667 384.355 96.2C384.795 95.92 385.302 95.78 385.875 95.78ZM393.28 95.74C394.347 95.74 395.194 96.0533 395.82 96.68C396.46 97.3067 396.78 98.1467 396.78 99.2V105.8C396.78 105.933 396.714 106 396.58 106H395.56C395.427 106 395.36 105.933 395.36 105.8V99.48C395.36 98.7467 395.134 98.1467 394.68 97.68C394.24 97.2133 393.667 96.98 392.96 96.98C392.227 96.98 391.634 97.2067 391.18 97.66C390.727 98.1133 390.5 98.7067 390.5 99.44V105.8C390.5 105.933 390.434 106 390.3 106H389.28C389.147 106 389.08 105.933 389.08 105.8V96.08C389.08 95.9467 389.147 95.88 389.28 95.88H390.3C390.434 95.88 390.5 95.9467 390.5 96.08V96.94C390.5 96.9667 390.507 96.9867 390.52 97C390.547 97.0133 390.567 97.0067 390.58 96.98C391.167 96.1533 392.067 95.74 393.28 95.74ZM400.822 94.04C400.502 94.04 400.235 93.9333 400.022 93.72C399.808 93.5067 399.702 93.24 399.702 92.92C399.702 92.5867 399.808 92.32 400.022 92.12C400.235 91.9067 400.502 91.8 400.822 91.8C401.142 91.8 401.408 91.9067 401.622 92.12C401.835 92.32 401.942 92.5867 401.942 92.92C401.942 93.24 401.835 93.5067 401.622 93.72C401.408 93.9333 401.142 94.04 400.822 94.04ZM400.262 105.98C400.128 105.98 400.062 105.913 400.062 105.78V96.06C400.062 95.9267 400.128 95.86 400.262 95.86H401.282C401.415 95.86 401.482 95.9267 401.482 96.06V105.78C401.482 105.913 401.415 105.98 401.282 105.98H400.262ZM409.159 95.74C410.226 95.74 411.073 96.0533 411.699 96.68C412.339 97.3067 412.659 98.1467 412.659 99.2V105.8C412.659 105.933 412.593 106 412.459 106H411.439C411.306 106 411.239 105.933 411.239 105.8V99.48C411.239 98.7467 411.013 98.1467 410.559 97.68C410.119 97.2133 409.546 96.98 408.839 96.98C408.106 96.98 407.513 97.2067 407.059 97.66C406.606 98.1133 406.379 98.7067 406.379 99.44V105.8C406.379 105.933 406.313 106 406.179 106H405.159C405.026 106 404.959 105.933 404.959 105.8V96.08C404.959 95.9467 405.026 95.88 405.159 95.88H406.179C406.313 95.88 406.379 95.9467 406.379 96.08V96.94C406.379 96.9667 406.386 96.9867 406.399 97C406.426 97.0133 406.446 97.0067 406.459 96.98C407.046 96.1533 407.946 95.74 409.159 95.74ZM421.981 96.08C421.981 95.9467 422.047 95.88 422.181 95.88H423.201C423.334 95.88 423.401 95.9467 423.401 96.08V105.66C423.401 107.153 422.967 108.247 422.101 108.94C421.247 109.633 420.067 109.98 418.561 109.98C418.254 109.98 418.021 109.973 417.861 109.96C417.727 109.947 417.661 109.873 417.661 109.74L417.701 108.82C417.701 108.753 417.721 108.7 417.761 108.66C417.801 108.633 417.847 108.627 417.901 108.64L418.441 108.66C419.681 108.66 420.581 108.413 421.141 107.92C421.701 107.44 421.981 106.673 421.981 105.62V104.88C421.981 104.853 421.967 104.84 421.941 104.84C421.927 104.827 421.907 104.833 421.881 104.86C421.267 105.66 420.394 106.06 419.261 106.06C418.394 106.06 417.621 105.827 416.941 105.36C416.274 104.893 415.827 104.233 415.601 103.38C415.441 102.833 415.361 102.02 415.361 100.94C415.361 100.353 415.374 99.86 415.401 99.46C415.441 99.06 415.514 98.7 415.621 98.38C415.861 97.58 416.294 96.94 416.921 96.46C417.547 95.9667 418.301 95.72 419.181 95.72C420.367 95.72 421.267 96.1133 421.881 96.9C421.907 96.9267 421.927 96.9333 421.941 96.92C421.967 96.9067 421.981 96.8867 421.981 96.86V96.08ZM421.881 102.94C421.921 102.74 421.947 102.493 421.961 102.2C421.974 101.907 421.981 101.48 421.981 100.92C421.981 100.24 421.974 99.7867 421.961 99.56C421.947 99.32 421.914 99.1 421.861 98.9C421.754 98.34 421.487 97.88 421.061 97.52C420.647 97.1467 420.121 96.96 419.481 96.96C418.854 96.96 418.321 97.14 417.881 97.5C417.454 97.86 417.154 98.3267 416.981 98.9C416.847 99.3267 416.781 99.9933 416.781 100.9C416.781 101.873 416.847 102.547 416.981 102.92C417.114 103.48 417.401 103.947 417.841 104.32C418.294 104.68 418.841 104.86 419.481 104.86C420.134 104.86 420.667 104.68 421.081 104.32C421.507 103.96 421.774 103.5 421.881 102.94Z" fill="black"/>
<rect x="300" y="159" width="30" height="30" fill="#E6BFCE"/>
<path d="M371.32 223C371.453 223 371.52 223.067 371.52 223.2V224.06C371.52 224.193 371.453 224.26 371.32 224.26H367.4C367.347 224.26 367.32 224.287 367.32 224.34V236.8C367.32 236.933 367.253 237 367.12 237H366.1C365.967 237 365.9 236.933 365.9 236.8V224.34C365.9 224.287 365.873 224.26 365.82 224.26H362.06C361.927 224.26 361.86 224.193 361.86 224.06V223.2C361.86 223.067 361.927 223 362.06 223H371.32ZM374.673 225.04C374.353 225.04 374.087 224.933 373.873 224.72C373.66 224.507 373.553 224.24 373.553 223.92C373.553 223.587 373.66 223.32 373.873 223.12C374.087 222.907 374.353 222.8 374.673 222.8C374.993 222.8 375.26 222.907 375.473 223.12C375.687 223.32 375.793 223.587 375.793 223.92C375.793 224.24 375.687 224.507 375.473 224.72C375.26 224.933 374.993 225.04 374.673 225.04ZM374.113 236.98C373.98 236.98 373.913 236.913 373.913 236.78V227.06C373.913 226.927 373.98 226.86 374.113 226.86H375.133C375.267 226.86 375.333 226.927 375.333 227.06V236.78C375.333 236.913 375.267 236.98 375.133 236.98H374.113ZM389.051 226.74C390.051 226.74 390.838 227.04 391.411 227.64C391.998 228.24 392.291 229.06 392.291 230.1V236.8C392.291 236.933 392.224 237 392.091 237H391.091C390.958 237 390.891 236.933 390.891 236.8V230.38C390.891 229.647 390.678 229.067 390.251 228.64C389.838 228.2 389.291 227.98 388.611 227.98C387.904 227.98 387.331 228.193 386.891 228.62C386.464 229.047 386.251 229.62 386.251 230.34V236.8C386.251 236.933 386.184 237 386.051 237H385.031C384.898 237 384.831 236.933 384.831 236.8V230.38C384.831 229.647 384.624 229.067 384.211 228.64C383.798 228.2 383.244 227.98 382.551 227.98C381.844 227.98 381.278 228.193 380.851 228.62C380.438 229.047 380.231 229.62 380.231 230.34V236.8C380.231 236.933 380.164 237 380.031 237H379.011C378.878 237 378.811 236.933 378.811 236.8V227.08C378.811 226.947 378.878 226.88 379.011 226.88H380.031C380.164 226.88 380.231 226.947 380.231 227.08V227.88C380.231 227.907 380.238 227.927 380.251 227.94C380.278 227.94 380.304 227.927 380.331 227.9C380.624 227.513 380.998 227.227 381.451 227.04C381.918 226.84 382.431 226.74 382.991 226.74C383.684 226.74 384.278 226.88 384.771 227.16C385.264 227.44 385.638 227.847 385.891 228.38C385.918 228.447 385.951 228.447 385.991 228.38C386.284 227.833 386.698 227.427 387.231 227.16C387.764 226.88 388.371 226.74 389.051 226.74ZM402.977 230.24C403.031 230.613 403.057 231.08 403.057 231.64V232.28C403.057 232.413 402.991 232.48 402.857 232.48H396.397C396.344 232.48 396.317 232.507 396.317 232.56C396.344 233.293 396.384 233.767 396.437 233.98C396.584 234.58 396.897 235.053 397.377 235.4C397.857 235.747 398.471 235.92 399.217 235.92C399.777 235.92 400.271 235.793 400.697 235.54C401.124 235.287 401.457 234.927 401.697 234.46C401.777 234.34 401.871 234.313 401.977 234.38L402.757 234.84C402.864 234.907 402.891 235 402.837 235.12C402.504 235.76 402.004 236.267 401.337 236.64C400.671 237 399.904 237.18 399.037 237.18C398.091 237.167 397.297 236.94 396.657 236.5C396.017 236.06 395.557 235.447 395.277 234.66C395.037 234.02 394.917 233.1 394.917 231.9C394.917 231.34 394.924 230.887 394.937 230.54C394.964 230.18 395.017 229.86 395.097 229.58C395.324 228.713 395.777 228.02 396.457 227.5C397.151 226.98 397.984 226.72 398.957 226.72C400.171 226.72 401.104 227.027 401.757 227.64C402.411 228.253 402.817 229.12 402.977 230.24ZM398.957 227.96C398.304 227.96 397.757 228.133 397.317 228.48C396.891 228.813 396.611 229.267 396.477 229.84C396.397 230.12 396.344 230.573 396.317 231.2C396.317 231.253 396.344 231.28 396.397 231.28H401.577C401.631 231.28 401.657 231.253 401.657 231.2C401.631 230.6 401.591 230.173 401.537 229.92C401.391 229.32 401.091 228.847 400.637 228.5C400.197 228.14 399.637 227.96 398.957 227.96Z" fill="black"/>
<path d="M140.017 129V29C195.245 29 240.017 73.7715 240.017 129C240.017 146.554 235.396 163.798 226.619 179L140.017 129Z" fill="#CA498C" stroke="white"/>
<path d="M140.017 129L226.619 179C199.005 226.829 137.846 243.217 90.0166 215.603C74.8147 206.826 62.1909 194.202 53.4141 179L140.017 129Z" fill="#FDE3DF" stroke="white"/>
<path d="M140.017 129L53.4142 179C25.7999 131.171 42.1874 70.0117 90.0167 42.3975C105.219 33.6206 122.463 29 140.017 29V129Z" fill="#E6BFCE" stroke="white"/>
</svg>
