<svg width="65" height="28" viewBox="0 0 65 28" fill="none" xmlns="http://www.w3.org/2000/svg">
<rect x="0.383759" y="0.500977" width="64.2381" height="27.1" rx="13.55" fill="#5D5FEF"/>
<path d="M12.1278 15.5366L12.3739 17.2241L12.7343 15.7036L15.2655 6.77393H16.6893L19.1591 15.7036L19.5106 17.2505L19.7831 15.5278L21.7694 6.77393H23.4657L20.3632 19.5708H18.8251L16.1884 10.2456L15.9862 9.27002L15.7841 10.2456L13.0507 19.5708H11.5126L8.41882 6.77393H10.1063L12.1278 15.5366ZM28.7567 19.7466C27.4677 19.7466 26.4188 19.3247 25.6102 18.481C24.8016 17.6313 24.3973 16.4976 24.3973 15.0796V14.7808C24.3973 13.8374 24.576 12.9966 24.9335 12.2583C25.2968 11.5142 25.8007 10.9341 26.4452 10.5181C27.0956 10.0962 27.7987 9.88525 28.5546 9.88525C29.7909 9.88525 30.7518 10.2925 31.4374 11.1069C32.1229 11.9214 32.4657 13.0874 32.4657 14.605V15.2817H26.0233C26.0468 16.2192 26.3192 16.978 26.8407 17.5581C27.368 18.1323 28.036 18.4194 28.8446 18.4194C29.4188 18.4194 29.9052 18.3022 30.3036 18.0679C30.702 17.8335 31.0507 17.5229 31.3495 17.1362L32.3427 17.9097C31.5458 19.1343 30.3505 19.7466 28.7567 19.7466ZM28.5546 11.2212C27.8983 11.2212 27.3475 11.4614 26.9022 11.9419C26.4569 12.4165 26.1815 13.0845 26.076 13.9458H30.8397V13.8228C30.7928 12.9966 30.5702 12.3579 30.1718 11.9067C29.7733 11.4497 29.2343 11.2212 28.5546 11.2212ZM38.3016 19.7466C37.0126 19.7466 35.9637 19.3247 35.1552 18.481C34.3466 17.6313 33.9423 16.4976 33.9423 15.0796V14.7808C33.9423 13.8374 34.121 12.9966 34.4784 12.2583C34.8417 11.5142 35.3456 10.9341 35.9901 10.5181C36.6405 10.0962 37.3436 9.88525 38.0995 9.88525C39.3358 9.88525 40.2968 10.2925 40.9823 11.1069C41.6678 11.9214 42.0106 13.0874 42.0106 14.605V15.2817H35.5682C35.5917 16.2192 35.8641 16.978 36.3856 17.5581C36.913 18.1323 37.5809 18.4194 38.3895 18.4194C38.9637 18.4194 39.4501 18.3022 39.8485 18.0679C40.2469 17.8335 40.5956 17.5229 40.8944 17.1362L41.8876 17.9097C41.0907 19.1343 39.8954 19.7466 38.3016 19.7466ZM38.0995 11.2212C37.4432 11.2212 36.8925 11.4614 36.4471 11.9419C36.0018 12.4165 35.7264 13.0845 35.621 13.9458H40.3846V13.8228C40.3378 12.9966 40.1151 12.3579 39.7167 11.9067C39.3182 11.4497 38.7792 11.2212 38.0995 11.2212ZM46.5546 15.1675L45.535 16.231V19.5708H43.9091V6.0708H45.535V14.2358L46.4052 13.1899L49.3671 10.061H51.3446L47.6444 14.0337L51.7753 19.5708H49.868L46.5546 15.1675Z" fill="white"/>
</svg>
